<svg xmlns="http://www.w3.org/2000/svg" xmlns:xlink="http://www.w3.org/1999/xlink" width="200" zoomAndPan="magnify" viewBox="0 0 150 149.999998" height="200" preserveAspectRatio="xMidYMid meet" version="1.0"><defs><g/><clipPath id="ebe3e8a5a7"><path d="M 15.769531 15.769531 L 134.269531 15.769531 L 134.269531 134.269531 L 15.769531 134.269531 Z M 15.769531 15.769531 " clip-rule="nonzero"/></clipPath><clipPath id="c636785cf3"><path d="M 18.894531 18.894531 L 131.394531 18.894531 L 131.394531 131.394531 L 18.894531 131.394531 Z M 18.894531 18.894531 " clip-rule="nonzero"/></clipPath><clipPath id="59c7291a40"><path d="M 48 48 L 102.195312 48 L 102.195312 103.292969 L 48 103.292969 Z M 48 48 " clip-rule="nonzero"/></clipPath><clipPath id="9b9d44c2bf"><path d="M 68 47.792969 L 71 47.792969 L 71 50 L 68 50 Z M 68 47.792969 " clip-rule="nonzero"/></clipPath><clipPath id="8daca707ca"><path d="M 47.445312 66 L 51 66 L 51 68 L 47.445312 68 Z M 47.445312 66 " clip-rule="nonzero"/></clipPath><clipPath id="fbfa3255f0"><path d="M 47.445312 74 L 51 74 L 51 78 L 47.445312 78 Z M 47.445312 74 " clip-rule="nonzero"/></clipPath><clipPath id="40ad0fe9fc"><path d="M 77 47.792969 L 80 47.792969 L 80 51 L 77 51 Z M 77 47.792969 " clip-rule="nonzero"/></clipPath><clipPath id="1ad3403004"><path d="M 25.980469 55.765625 L 40.714844 55.765625 L 40.714844 94.234375 L 25.980469 94.234375 Z M 25.980469 55.765625 " clip-rule="nonzero"/></clipPath><clipPath id="565d1914c6"><path d="M 109.15625 55.765625 L 123.890625 55.765625 L 123.890625 94.234375 L 109.15625 94.234375 Z M 109.15625 55.765625 " clip-rule="nonzero"/></clipPath><clipPath id="7cf7638a52"><path d="M 113 64 L 120 64 L 120 92 L 113 92 Z M 113 64 " clip-rule="nonzero"/></clipPath><clipPath id="f2826f3c00"><path d="M 109.753906 58.058594 L 124.75 57.671875 L 125.617188 91.410156 L 110.621094 91.796875 Z M 109.753906 58.058594 " clip-rule="nonzero"/></clipPath><clipPath id="fe979306af"><path d="M 109.753906 58.058594 L 124.75 57.671875 L 125.617188 91.410156 L 110.621094 91.796875 Z M 109.753906 58.058594 " clip-rule="nonzero"/></clipPath><clipPath id="d0f0c53e46"><path d="M 111 63 L 118 63 L 118 69 L 111 69 Z M 111 63 " clip-rule="nonzero"/></clipPath><clipPath id="53f0475d3d"><path d="M 109.753906 58.058594 L 124.75 57.671875 L 125.617188 91.410156 L 110.621094 91.796875 Z M 109.753906 58.058594 " clip-rule="nonzero"/></clipPath><clipPath id="050ba76be7"><path d="M 109.753906 58.058594 L 124.75 57.671875 L 125.617188 91.410156 L 110.621094 91.796875 Z M 109.753906 58.058594 " clip-rule="nonzero"/></clipPath><clipPath id="4427b2b811"><path d="M 119 74 L 125 74 L 125 79 L 119 79 Z M 119 74 " clip-rule="nonzero"/></clipPath><clipPath id="042106b9e6"><path d="M 109.753906 58.058594 L 124.75 57.671875 L 125.617188 91.410156 L 110.621094 91.796875 Z M 109.753906 58.058594 " clip-rule="nonzero"/></clipPath><clipPath id="ab178e7dcd"><path d="M 109.753906 58.058594 L 124.75 57.671875 L 125.617188 91.410156 L 110.621094 91.796875 Z M 109.753906 58.058594 " clip-rule="nonzero"/></clipPath><clipPath id="22527566c9"><path d="M 110 83 L 116 83 L 116 88 L 110 88 Z M 110 83 " clip-rule="nonzero"/></clipPath><clipPath id="2bd76356c5"><path d="M 109.753906 58.058594 L 124.75 57.671875 L 125.617188 91.410156 L 110.621094 91.796875 Z M 109.753906 58.058594 " clip-rule="nonzero"/></clipPath><clipPath id="137ebbf030"><path d="M 109.753906 58.058594 L 124.75 57.671875 L 125.617188 91.410156 L 110.621094 91.796875 Z M 109.753906 58.058594 " clip-rule="nonzero"/></clipPath><clipPath id="88d4b987bf"><path d="M 119 62 L 124 62 L 124 69 L 119 69 Z M 119 62 " clip-rule="nonzero"/></clipPath><clipPath id="49993fb75b"><path d="M 109.753906 58.058594 L 124.75 57.671875 L 125.617188 91.410156 L 110.621094 91.796875 Z M 109.753906 58.058594 " clip-rule="nonzero"/></clipPath><clipPath id="4643798654"><path d="M 109.753906 58.058594 L 124.75 57.671875 L 125.617188 91.410156 L 110.621094 91.796875 Z M 109.753906 58.058594 " clip-rule="nonzero"/></clipPath><clipPath id="db7d179c7c"><path d="M 116 85 L 124 85 L 124 89 L 116 89 Z M 116 85 " clip-rule="nonzero"/></clipPath><clipPath id="94333b248e"><path d="M 109.753906 58.058594 L 124.75 57.671875 L 125.617188 91.410156 L 110.621094 91.796875 Z M 109.753906 58.058594 " clip-rule="nonzero"/></clipPath><clipPath id="5647ac57a8"><path d="M 109.753906 58.058594 L 124.75 57.671875 L 125.617188 91.410156 L 110.621094 91.796875 Z M 109.753906 58.058594 " clip-rule="nonzero"/></clipPath><clipPath id="324d9ca525"><path d="M 112 75 L 118 75 L 118 79 L 112 79 Z M 112 75 " clip-rule="nonzero"/></clipPath><clipPath id="56efd7ec77"><path d="M 109.753906 58.058594 L 124.75 57.671875 L 125.617188 91.410156 L 110.621094 91.796875 Z M 109.753906 58.058594 " clip-rule="nonzero"/></clipPath><clipPath id="ad57cf96b8"><path d="M 109.753906 58.058594 L 124.75 57.671875 L 125.617188 91.410156 L 110.621094 91.796875 Z M 109.753906 58.058594 " clip-rule="nonzero"/></clipPath><clipPath id="bed60c4983"><path d="M 112 69 L 118 69 L 118 74 L 112 74 Z M 112 69 " clip-rule="nonzero"/></clipPath><clipPath id="f02e5bdf2f"><path d="M 109.753906 58.058594 L 124.75 57.671875 L 125.617188 91.410156 L 110.621094 91.796875 Z M 109.753906 58.058594 " clip-rule="nonzero"/></clipPath><clipPath id="3ecb6c1f0c"><path d="M 109.753906 58.058594 L 124.75 57.671875 L 125.617188 91.410156 L 110.621094 91.796875 Z M 109.753906 58.058594 " clip-rule="nonzero"/></clipPath><clipPath id="9537e5af1b"><path d="M 118 79 L 125 79 L 125 84 L 118 84 Z M 118 79 " clip-rule="nonzero"/></clipPath><clipPath id="b8b02e2f46"><path d="M 109.753906 58.058594 L 124.75 57.671875 L 125.617188 91.410156 L 110.621094 91.796875 Z M 109.753906 58.058594 " clip-rule="nonzero"/></clipPath><clipPath id="0bf3890cff"><path d="M 109.753906 58.058594 L 124.75 57.671875 L 125.617188 91.410156 L 110.621094 91.796875 Z M 109.753906 58.058594 " clip-rule="nonzero"/></clipPath><clipPath id="6000a20bff"><path d="M 119 68 L 125 68 L 125 74 L 119 74 Z M 119 68 " clip-rule="nonzero"/></clipPath><clipPath id="ba3e0e39a9"><path d="M 109.753906 58.058594 L 124.75 57.671875 L 125.617188 91.410156 L 110.621094 91.796875 Z M 109.753906 58.058594 " clip-rule="nonzero"/></clipPath><clipPath id="69cb0f0dee"><path d="M 109.753906 58.058594 L 124.75 57.671875 L 125.617188 91.410156 L 110.621094 91.796875 Z M 109.753906 58.058594 " clip-rule="nonzero"/></clipPath><clipPath id="33a47a209f"><path d="M 111 78 L 117 78 L 117 84 L 111 84 Z M 111 78 " clip-rule="nonzero"/></clipPath><clipPath id="50d2dd2ed2"><path d="M 109.753906 58.058594 L 124.75 57.671875 L 125.617188 91.410156 L 110.621094 91.796875 Z M 109.753906 58.058594 " clip-rule="nonzero"/></clipPath><clipPath id="764eab8704"><path d="M 109.753906 58.058594 L 124.75 57.671875 L 125.617188 91.410156 L 110.621094 91.796875 Z M 109.753906 58.058594 " clip-rule="nonzero"/></clipPath><clipPath id="e9fb862779"><path d="M 113 57 L 117 57 L 117 65 L 113 65 Z M 113 57 " clip-rule="nonzero"/></clipPath><clipPath id="ee5a3c679d"><path d="M 109.753906 58.058594 L 124.75 57.671875 L 125.617188 91.410156 L 110.621094 91.796875 Z M 109.753906 58.058594 " clip-rule="nonzero"/></clipPath><clipPath id="1cc83cc119"><path d="M 109.753906 58.058594 L 124.75 57.671875 L 125.617188 91.410156 L 110.621094 91.796875 Z M 109.753906 58.058594 " clip-rule="nonzero"/></clipPath><clipPath id="ce5663cd0c"><path d="M 31 64 L 37 64 L 37 91.613281 L 31 91.613281 Z M 31 64 " clip-rule="nonzero"/></clipPath><clipPath id="bf62e08ea5"><path d="M 35 83 L 40.234375 83 L 40.234375 88 L 35 88 Z M 35 83 " clip-rule="nonzero"/></clipPath><clipPath id="61e2b77938"><path d="M 25.550781 79 L 33 79 L 33 84 L 25.550781 84 Z M 25.550781 79 " clip-rule="nonzero"/></clipPath><clipPath id="2ad582a0c0"><path d="M 25.550781 68 L 31 68 L 31 74 L 25.550781 74 Z M 25.550781 68 " clip-rule="nonzero"/></clipPath><clipPath id="6abd74bd5a"><path d="M 33 57.863281 L 37 57.863281 L 37 65 L 33 65 Z M 33 57.863281 " clip-rule="nonzero"/></clipPath></defs><g clip-path="url(#ebe3e8a5a7)"><path fill="#eeeae0" d="M 134.222656 74.996094 C 134.222656 76.933594 134.125 78.871094 133.9375 80.800781 C 133.746094 82.730469 133.460938 84.648438 133.082031 86.550781 C 132.707031 88.453125 132.234375 90.332031 131.671875 92.1875 C 131.109375 94.042969 130.457031 95.867188 129.714844 97.660156 C 128.972656 99.453125 128.144531 101.203125 127.226562 102.914062 C 126.3125 104.625 125.316406 106.285156 124.242188 107.898438 C 123.164062 109.511719 122.007812 111.070312 120.777344 112.566406 C 119.546875 114.066406 118.246094 115.503906 116.875 116.875 C 115.503906 118.246094 114.066406 119.546875 112.566406 120.777344 C 111.070312 122.007812 109.511719 123.164062 107.898438 124.242188 C 106.285156 125.316406 104.625 126.3125 102.914062 127.226562 C 101.203125 128.144531 99.453125 128.972656 97.660156 129.714844 C 95.867188 130.457031 94.042969 131.109375 92.1875 131.671875 C 90.332031 132.234375 88.453125 132.707031 86.550781 133.082031 C 84.648438 133.460938 82.730469 133.746094 80.800781 133.9375 C 78.871094 134.125 76.933594 134.222656 74.996094 134.222656 C 73.054688 134.222656 71.121094 134.125 69.191406 133.9375 C 67.257812 133.746094 65.34375 133.460938 63.441406 133.082031 C 61.539062 132.707031 59.660156 132.234375 57.800781 131.671875 C 55.945312 131.109375 54.121094 130.457031 52.332031 129.714844 C 50.539062 128.972656 48.785156 128.144531 47.074219 127.226562 C 45.367188 126.3125 43.703125 125.316406 42.089844 124.242188 C 40.476562 123.164062 38.921875 122.007812 37.421875 120.777344 C 35.921875 119.546875 34.488281 118.246094 33.117188 116.875 C 31.742188 115.503906 30.441406 114.066406 29.210938 112.566406 C 27.980469 111.070312 26.828125 109.511719 25.75 107.898438 C 24.671875 106.285156 23.675781 104.625 22.761719 102.914062 C 21.847656 101.203125 21.019531 99.453125 20.277344 97.660156 C 19.535156 95.867188 18.882812 94.042969 18.320312 92.1875 C 17.753906 90.332031 17.285156 88.453125 16.90625 86.550781 C 16.527344 84.648438 16.242188 82.730469 16.054688 80.800781 C 15.863281 78.871094 15.769531 76.933594 15.769531 74.996094 C 15.769531 73.054688 15.863281 71.121094 16.054688 69.191406 C 16.242188 67.257812 16.527344 65.34375 16.90625 63.441406 C 17.285156 61.539062 17.753906 59.660156 18.320312 57.800781 C 18.882812 55.945312 19.535156 54.121094 20.277344 52.332031 C 21.019531 50.539062 21.847656 48.785156 22.761719 47.074219 C 23.675781 45.367188 24.671875 43.703125 25.75 42.089844 C 26.828125 40.476562 27.980469 38.921875 29.210938 37.421875 C 30.441406 35.921875 31.742188 34.488281 33.117188 33.117188 C 34.488281 31.742188 35.921875 30.441406 37.421875 29.210938 C 38.921875 27.980469 40.476562 26.828125 42.089844 25.75 C 43.703125 24.671875 45.367188 23.675781 47.074219 22.761719 C 48.785156 21.847656 50.539062 21.019531 52.332031 20.277344 C 54.121094 19.535156 55.945312 18.882812 57.800781 18.320312 C 59.660156 17.753906 61.539062 17.285156 63.441406 16.90625 C 65.34375 16.527344 67.257812 16.242188 69.191406 16.054688 C 71.121094 15.863281 73.054688 15.769531 74.996094 15.769531 C 76.933594 15.769531 78.871094 15.863281 80.800781 16.054688 C 82.730469 16.242188 84.648438 16.527344 86.550781 16.90625 C 88.453125 17.285156 90.332031 17.753906 92.1875 18.320312 C 94.042969 18.882812 95.867188 19.535156 97.660156 20.277344 C 99.453125 21.019531 101.203125 21.847656 102.914062 22.761719 C 104.625 23.675781 106.285156 24.671875 107.898438 25.75 C 109.511719 26.828125 111.070312 27.980469 112.566406 29.210938 C 114.066406 30.441406 115.503906 31.742188 116.875 33.117188 C 118.246094 34.488281 119.546875 35.921875 120.777344 37.421875 C 122.007812 38.921875 123.164062 40.476562 124.242188 42.089844 C 125.316406 43.703125 126.3125 45.367188 127.226562 47.074219 C 128.144531 48.785156 128.972656 50.539062 129.714844 52.332031 C 130.457031 54.121094 131.109375 55.945312 131.671875 57.800781 C 132.234375 59.660156 132.707031 61.539062 133.082031 63.441406 C 133.460938 65.34375 133.746094 67.257812 133.9375 69.191406 C 134.125 71.121094 134.222656 73.054688 134.222656 74.996094 Z M 134.222656 74.996094 " fill-opacity="1" fill-rule="nonzero"/></g><path fill="#eeeae0" d="M 129.792969 74.996094 C 129.792969 76.789062 129.707031 78.582031 129.53125 80.367188 C 129.355469 82.152344 129.089844 83.925781 128.742188 85.683594 C 128.390625 87.445312 127.957031 89.183594 127.433594 90.902344 C 126.914062 92.617188 126.308594 94.304688 125.625 95.960938 C 124.9375 97.621094 124.171875 99.242188 123.324219 100.824219 C 122.476562 102.40625 121.558594 103.941406 120.558594 105.433594 C 119.5625 106.925781 118.496094 108.367188 117.355469 109.753906 C 116.21875 111.140625 115.015625 112.46875 113.746094 113.738281 C 112.476562 115.007812 111.148438 116.210938 109.761719 117.347656 C 108.375 118.488281 106.9375 119.554688 105.445312 120.550781 C 103.953125 121.546875 102.414062 122.46875 100.832031 123.316406 C 99.25 124.160156 97.628906 124.925781 95.972656 125.613281 C 94.3125 126.300781 92.625 126.90625 90.910156 127.425781 C 89.191406 127.945312 87.453125 128.382812 85.695312 128.730469 C 83.933594 129.082031 82.160156 129.34375 80.375 129.519531 C 78.589844 129.695312 76.800781 129.785156 75.003906 129.785156 C 73.210938 129.785156 71.421875 129.695312 69.636719 129.519531 C 67.847656 129.34375 66.078125 129.082031 64.316406 128.730469 C 62.554688 128.382812 60.816406 127.945312 59.101562 127.425781 C 57.382812 126.90625 55.695312 126.300781 54.039062 125.613281 C 52.378906 124.925781 50.761719 124.160156 49.179688 123.316406 C 47.59375 122.46875 46.058594 121.546875 44.566406 120.550781 C 43.074219 119.554688 41.636719 118.488281 40.246094 117.347656 C 38.859375 116.210938 37.53125 115.007812 36.265625 113.738281 C 34.996094 112.46875 33.792969 111.140625 32.652344 109.753906 C 31.515625 108.367188 30.445312 106.925781 29.449219 105.433594 C 28.453125 103.941406 27.53125 102.40625 26.6875 100.824219 C 25.839844 99.242188 25.074219 97.621094 24.386719 95.960938 C 23.699219 94.304688 23.097656 92.617188 22.574219 90.902344 C 22.054688 89.183594 21.621094 87.445312 21.269531 85.683594 C 20.917969 83.925781 20.65625 82.152344 20.480469 80.367188 C 20.304688 78.582031 20.214844 76.789062 20.214844 74.996094 C 20.214844 73.203125 20.304688 71.410156 20.480469 69.625 C 20.65625 67.839844 20.917969 66.066406 21.269531 64.308594 C 21.621094 62.546875 22.054688 60.808594 22.574219 59.09375 C 23.097656 57.375 23.699219 55.6875 24.386719 54.03125 C 25.074219 52.371094 25.839844 50.75 26.6875 49.167969 C 27.53125 47.585938 28.453125 46.050781 29.449219 44.558594 C 30.445312 43.066406 31.515625 41.625 32.652344 40.238281 C 33.792969 38.851562 34.996094 37.523438 36.265625 36.253906 C 37.53125 34.984375 38.859375 33.78125 40.246094 32.644531 C 41.636719 31.503906 43.074219 30.4375 44.566406 29.441406 C 46.058594 28.445312 47.59375 27.523438 49.179688 26.675781 C 50.761719 25.832031 52.378906 25.066406 54.039062 24.378906 C 55.695312 23.691406 57.382812 23.085938 59.101562 22.566406 C 60.816406 22.046875 62.554688 21.609375 64.316406 21.261719 C 66.078125 20.910156 67.847656 20.648438 69.636719 20.472656 C 71.421875 20.296875 73.210938 20.207031 75.003906 20.207031 C 76.800781 20.207031 78.589844 20.296875 80.375 20.472656 C 82.160156 20.648438 83.933594 20.910156 85.695312 21.261719 C 87.453125 21.609375 89.191406 22.046875 90.910156 22.566406 C 92.625 23.085938 94.3125 23.691406 95.972656 24.378906 C 97.628906 25.066406 99.25 25.832031 100.832031 26.675781 C 102.414062 27.523438 103.953125 28.445312 105.445312 29.441406 C 106.9375 30.4375 108.375 31.503906 109.761719 32.644531 C 111.148438 33.78125 112.476562 34.984375 113.746094 36.253906 C 115.015625 37.523438 116.21875 38.851562 117.355469 40.238281 C 118.496094 41.625 119.5625 43.066406 120.558594 44.558594 C 121.558594 46.050781 122.476562 47.585938 123.324219 49.167969 C 124.171875 50.75 124.9375 52.371094 125.625 54.03125 C 126.308594 55.6875 126.914062 57.375 127.433594 59.09375 C 127.957031 60.808594 128.390625 62.546875 128.742188 64.308594 C 129.089844 66.066406 129.355469 67.839844 129.53125 69.625 C 129.707031 71.410156 129.792969 73.203125 129.792969 74.996094 Z M 129.792969 74.996094 " fill-opacity="1" fill-rule="nonzero"/><g clip-path="url(#c636785cf3)"><path fill="#334d2b" d="M 75.003906 131.101562 C 60.019531 131.101562 45.929688 125.265625 35.332031 114.667969 C 24.738281 104.070312 18.902344 89.984375 18.902344 74.996094 C 18.902344 60.011719 24.738281 45.921875 35.332031 35.324219 C 45.929688 24.726562 60.019531 18.894531 75.003906 18.894531 C 89.992188 18.894531 104.082031 24.726562 114.675781 35.324219 C 125.273438 45.921875 131.109375 60.011719 131.109375 74.996094 C 131.109375 89.984375 125.273438 104.070312 114.675781 114.667969 C 104.082031 125.265625 89.992188 131.101562 75.003906 131.101562 Z M 75.003906 21.523438 C 60.722656 21.523438 47.292969 27.085938 37.195312 37.183594 C 27.09375 47.285156 21.53125 60.710938 21.53125 74.996094 C 21.53125 89.28125 27.09375 102.707031 37.195312 112.808594 C 47.292969 122.90625 60.722656 128.46875 75.003906 128.46875 C 89.289062 128.46875 102.714844 122.90625 112.816406 112.808594 C 122.914062 102.707031 128.480469 89.28125 128.480469 74.996094 C 128.480469 60.710938 122.914062 47.285156 112.816406 37.183594 C 102.714844 27.085938 89.289062 21.523438 75.003906 21.523438 Z M 75.003906 108.050781 C 56.78125 108.050781 41.953125 93.222656 41.953125 74.996094 C 41.953125 56.773438 56.777344 41.941406 75.003906 41.941406 C 93.230469 41.941406 108.058594 56.769531 108.058594 74.996094 C 108.058594 93.222656 93.230469 108.050781 75.003906 108.050781 Z M 75.003906 44.574219 C 58.230469 44.574219 44.582031 58.222656 44.582031 75 C 44.582031 91.773438 58.230469 105.421875 75.003906 105.421875 C 91.78125 105.421875 105.429688 91.773438 105.429688 74.996094 C 105.429688 58.222656 91.78125 44.574219 75.003906 44.574219 Z M 121.683594 74.996094 C 121.683594 68.53125 120.382812 62.273438 117.808594 56.386719 L 111.785156 59.019531 C 113.992188 64.070312 115.113281 69.445312 115.113281 74.996094 C 115.113281 80.546875 113.992188 85.921875 111.785156 90.972656 L 117.808594 93.605469 C 120.378906 87.71875 121.683594 81.460938 121.683594 74.996094 Z M 38.226562 90.972656 C 36.019531 85.921875 34.898438 80.546875 34.898438 74.996094 C 34.898438 69.445312 36.019531 64.070312 38.226562 59.019531 L 32.203125 56.386719 C 29.628906 62.273438 28.324219 68.535156 28.324219 74.996094 C 28.324219 81.460938 29.628906 87.71875 32.203125 93.605469 Z M 38.226562 90.972656 " fill-opacity="1" fill-rule="nonzero"/></g><g clip-path="url(#59c7291a40)"><path fill="#334d2b" d="M 92.21875 83.089844 C 92.476562 83.609375 92.875 84.65625 93.355469 84.945312 C 93.929688 85.289062 94.941406 84.890625 95.761719 84.820312 C 96.488281 84.75 97.539062 85.425781 97.949219 84.503906 C 98.058594 84.257812 98.074219 83.980469 98.085938 83.71875 C 96.953125 83.871094 95.335938 84.3125 94.285156 84.148438 C 93.382812 83.941406 92.875 83.554688 92.21875 83.089844 M 91.125 85.796875 C 91.425781 86.59375 92.613281 86.8125 93.421875 86.894531 C 93.3125 86.511719 93.132812 86.003906 92.75 85.808594 C 92.394531 85.632812 91.507812 85.6875 91.125 85.796875 Z M 58.667969 86.894531 C 59.476562 86.800781 60.664062 86.59375 60.964844 85.796875 C 60.582031 85.6875 59.695312 85.632812 59.324219 85.824219 C 58.957031 86.003906 58.792969 86.511719 58.667969 86.894531 Z M 90.90625 88.421875 L 91.726562 89.453125 C 93.203125 88.738281 92.027344 88.339844 91.765625 88.351562 C 91.464844 88.351562 91.179688 88.378906 90.90625 88.421875 Z M 82.96875 85.769531 C 83.886719 87.074219 82.722656 88.585938 81.875 89.546875 C 82.613281 89.835938 83.050781 89.796875 83.625 89.148438 C 84.390625 88.257812 84.570312 86.332031 86.320312 86.746094 C 87.113281 86.9375 87.578125 87.375 88.59375 86.855469 L 90.015625 85.851562 C 89.726562 84.613281 89.523438 84.089844 88.179688 84.640625 C 86.636719 85.273438 84.679688 86.261719 82.96875 85.769531 Z M 78.523438 85.289062 C 78.753906 86.59375 79.847656 87.761719 80.722656 88.695312 C 82.695312 86.058594 79.984375 86.660156 78.523438 85.289062 Z M 60.378906 89.453125 L 61.199219 88.421875 C 60.925781 88.378906 60.636719 88.351562 60.335938 88.351562 C 60.078125 88.339844 58.902344 88.738281 60.378906 89.453125 Z M 58.738281 84.945312 C 59.230469 84.65625 59.613281 83.597656 59.871094 83.089844 C 59.230469 83.570312 58.710938 83.953125 57.804688 84.132812 C 56.738281 84.296875 55.125 83.859375 54.003906 83.707031 C 54.015625 83.980469 54.03125 84.242188 54.140625 84.492188 C 54.550781 85.425781 55.601562 84.738281 56.328125 84.804688 C 57.148438 84.890625 58.160156 85.273438 58.738281 84.945312 Z M 70.230469 89.546875 C 69.382812 88.574219 68.21875 87.074219 69.136719 85.769531 C 67.425781 86.261719 65.46875 85.273438 63.921875 84.65625 C 62.582031 84.105469 62.375 84.613281 62.089844 85.863281 L 63.511719 86.867188 C 64.523438 87.402344 64.988281 86.949219 65.78125 86.757812 C 67.535156 86.347656 67.699219 88.269531 68.476562 89.164062 C 69.054688 89.796875 69.503906 89.835938 70.230469 89.546875 Z M 75.9375 48.011719 C 76.757812 49.6875 77.535156 51.214844 77.945312 53.042969 C 78.152344 54.210938 78.234375 55.253906 78.300781 56.3125 C 78.808594 55.683594 79.355469 55.351562 80.09375 54.941406 C 80.945312 54.5 81.667969 54.15625 82.449219 53.59375 C 83.460938 52.835938 83.996094 52.121094 84.542969 50.96875 C 84.078125 52.175781 83.585938 52.945312 82.625 53.8125 C 81.875 54.457031 81.164062 54.855469 80.339844 55.378906 C 79.644531 55.832031 79.125 56.203125 78.714844 56.933594 C 78.34375 57.660156 78.398438 57.921875 78.46875 58.691406 C 78.742188 60.851562 80.148438 61.851562 80.875 64.273438 C 80.945312 64.546875 81 64.820312 81.054688 65.082031 C 82.230469 64.683594 83.640625 64.421875 85.226562 63.777344 C 85.980469 63.460938 86.636719 63.105469 87.238281 62.679688 C 88.332031 61.6875 88.195312 60.410156 87.976562 59.1875 C 87.796875 58.238281 87.566406 57.332031 87.441406 56.371094 C 87.386719 55.914062 87.375 55.53125 87.457031 55.078125 C 87.539062 54.652344 87.648438 54.363281 87.921875 54.019531 C 87.742188 54.390625 87.6875 54.679688 87.703125 55.089844 C 87.730469 55.515625 87.824219 55.859375 87.949219 56.257812 C 88.261719 57.152344 88.6875 57.992188 89.042969 58.871094 C 89.25 59.40625 89.425781 59.886719 89.523438 60.394531 C 90.070312 59.625 90.4375 58.9375 90.753906 58.019531 C 91.054688 57.054688 91.152344 56.285156 91.054688 55.269531 C 90.917969 54.128906 90.90625 53.496094 90.464844 52.398438 C 91.054688 53.441406 91.207031 54.058594 91.492188 55.1875 C 91.765625 56.273438 91.78125 57.125 91.628906 58.226562 C 91.4375 59.339844 91.125 60.191406 90.617188 61.195312 C 90.207031 61.9375 89.769531 62.59375 89.289062 63.1875 C 89.796875 63.199219 90.300781 63.226562 90.851562 63.269531 C 91.792969 63.324219 92.75 63.40625 93.695312 63.28125 C 94.09375 63.199219 94.394531 63.117188 94.75 62.898438 C 95.117188 62.648438 95.308594 62.390625 95.515625 61.992188 C 95.378906 62.445312 95.226562 62.734375 94.898438 63.078125 C 94.558594 63.390625 94.257812 63.558594 93.820312 63.722656 C 92.859375 64.066406 91.890625 64.164062 90.878906 64.273438 C 90.097656 64.367188 89.386719 64.449219 88.660156 64.617188 C 87.277344 64.933594 87.457031 65.054688 86.253906 65.8125 C 85.527344 66.195312 84.351562 66.648438 83.394531 67.035156 C 81.4375 67.816406 81.164062 68.339844 81.3125 69.714844 C 83.367188 69.070312 85.71875 70.128906 87.714844 70.5 C 88.441406 70.609375 88.933594 70.566406 89.644531 70.347656 C 90.710938 70.003906 91.519531 69.441406 92.382812 68.753906 C 93.394531 67.914062 94.40625 66.992188 95.695312 66.609375 C 96.308594 66.457031 96.761719 66.457031 97.390625 66.527344 C 98.183594 66.648438 98.9375 66.871094 99.703125 67.117188 C 98.910156 66.953125 98.171875 66.828125 97.363281 66.828125 C 96.800781 66.828125 96.378906 66.871094 95.859375 67.089844 C 94.816406 67.585938 93.859375 68.671875 93.039062 69.480469 C 92.121094 70.375 91.300781 71.074219 90.164062 71.652344 C 89.261719 72.050781 88.578125 72.1875 87.59375 72.175781 C 86.992188 72.148438 86.417969 72.078125 85.84375 71.996094 L 85.855469 72.011719 C 86.035156 72.410156 86.183594 72.738281 86.445312 73.097656 C 86.746094 73.507812 87.019531 73.742188 87.457031 74.003906 C 88.097656 74.375 88.703125 74.5 89.425781 74.582031 C 90.617188 74.71875 91.671875 74.621094 92.859375 74.441406 C 93.820312 74.332031 94.871094 74.015625 95.886719 73.878906 C 96.515625 73.8125 97.074219 73.769531 97.703125 73.839844 C 97.976562 73.878906 98.210938 73.921875 98.472656 74.03125 C 98.636719 74.070312 98.921875 74.277344 99.046875 74.414062 C 98.855469 74.265625 98.675781 74.183594 98.445312 74.113281 C 98.183594 74.042969 97.964844 74.03125 97.691406 74.015625 C 97.074219 74.015625 96.542969 74.113281 95.953125 74.265625 C 94.898438 74.527344 94.023438 74.855469 93.011719 75.183594 C 91.765625 75.5 90.65625 75.722656 89.371094 75.761719 C 88.441406 75.75 87.714844 75.652344 86.839844 75.324219 C 86.15625 75.019531 85.71875 74.703125 85.199219 74.167969 C 84.816406 73.742188 84.554688 73.355469 84.269531 72.863281 C 84.007812 72.4375 83.707031 72.023438 83.226562 71.816406 C 83.105469 71.761719 82.980469 71.734375 82.871094 71.722656 C 82.804688 71.722656 82.734375 71.722656 82.652344 71.722656 C 82.585938 71.734375 82.503906 71.75 82.421875 71.761719 C 82.050781 71.871094 81.777344 72.066406 81.492188 72.3125 C 81.136719 72.640625 80.875 72.957031 80.628906 73.371094 C 80.285156 74.003906 80.164062 74.925781 80.203125 75.914062 C 80.257812 77.632812 80.777344 79.554688 81.410156 80.53125 C 81.792969 81.136719 82.40625 81.617188 82.421875 81.617188 C 82.613281 81.742188 82.816406 81.796875 83.035156 81.851562 C 84.855469 82.140625 87.496094 80.820312 89.671875 80.574219 C 92.3125 80.324219 93.132812 82.675781 94.570312 83.117188 C 95.515625 83.40625 97.128906 83.128906 98.226562 83.15625 C 98.347656 82.59375 98.828125 82.125 99.414062 82.070312 C 100.152344 82.058594 100.605469 82.648438 101.726562 82.605469 C 100.414062 82.71875 99.785156 81.78125 98.910156 82.414062 L 98.429688 83.15625 C 99.824219 83.210938 100.839844 83.488281 102.164062 84.257812 C 100.785156 83.652344 99.757812 83.5 98.390625 83.652344 C 98.375 84.1875 98.363281 84.875 97.773438 85.175781 C 97.199219 85.480469 96.527344 85.164062 95.859375 85.203125 C 94.734375 85.289062 93.382812 86.347656 92.285156 84.519531 C 92.027344 84.0625 91.835938 83.707031 91.628906 83.363281 C 90.300781 81.109375 87.402344 83.253906 85.757812 83.871094 C 86.664062 83.636719 88.042969 83.074219 88.839844 83.035156 C 89.796875 82.992188 90.453125 83.488281 90.808594 84.351562 C 90.960938 84.710938 91 85.039062 91.054688 85.328125 C 91.535156 85.21875 92.519531 85.21875 92.957031 85.464844 C 93.4375 85.742188 93.628906 86.359375 93.738281 86.882812 C 95.378906 87.03125 98.085938 86.71875 99.210938 87.15625 C 99.566406 87.292969 99.988281 87.582031 99.878906 88.023438 C 99.6875 88.804688 98.074219 88.929688 99.15625 90.550781 C 98.882812 90.195312 98.621094 89.753906 98.730469 89.285156 C 98.910156 88.542969 100.003906 88.1875 99.523438 87.691406 C 98.894531 87.019531 94.96875 87.691406 93.859375 87.679688 C 94.050781 89.285156 94.160156 90.34375 96.089844 90.441406 C 95.570312 90.441406 95.144531 90.386719 94.695312 90.125 C 93.929688 89.644531 93.847656 88.792969 93.640625 87.679688 C 92.492188 87.652344 90.824219 87.488281 90.21875 86.304688 C 89.769531 86.660156 89.398438 87.019531 88.90625 87.335938 C 87.167969 88.367188 86.15625 86.910156 85.511719 87.597656 C 85.15625 87.980469 84.953125 88.886719 84.445312 89.617188 C 86.117188 89.316406 87.292969 88.722656 88.796875 88.089844 C 89.890625 87.636719 92.066406 87.019531 92.957031 88.144531 C 93.273438 88.542969 93.1875 88.875 92.996094 89.257812 C 92.832031 89.574219 92.300781 89.835938 92.011719 89.960938 C 92.4375 90.921875 92.476562 91.253906 93.285156 92.105469 C 93.449219 92.285156 93.695312 92.3125 93.929688 92.3125 C 95.433594 92.339844 96.71875 91.773438 98.140625 92.738281 C 96.132812 91.679688 93.984375 93.492188 92.859375 92.570312 C 91.984375 91.855469 91.683594 91.28125 91.164062 90.359375 C 90.371094 90.910156 90.152344 92.421875 90.480469 93.191406 C 91.097656 94.632812 93.300781 94.855469 93.777344 96.53125 C 92.929688 94.304688 89.195312 94.867188 90.097656 91.183594 C 90.21875 90.660156 90.464844 90.234375 90.890625 89.917969 C 90.300781 89.121094 89.917969 89.136719 89.058594 89.535156 C 88.550781 89.78125 88.042969 90.070312 87.550781 90.332031 C 88.140625 91.085938 87.824219 91.882812 87.238281 92.53125 L 86.855469 93.066406 L 87.074219 93.246094 C 87.441406 93.507812 88.292969 93.453125 88.59375 93.710938 C 89.167969 94.207031 88.46875 95.308594 88.949219 95.539062 C 89.78125 95.953125 90.78125 95.652344 91.164062 96.367188 C 91.535156 97.121094 91.027344 97.933594 92.191406 98.261719 C 91.054688 98.195312 91.398438 97.082031 91 96.476562 C 90.671875 95.980469 89.960938 96.1875 89.261719 96.035156 L 88.878906 97.203125 C 88.894531 97.519531 89.441406 97.78125 89.6875 98.015625 C 90.109375 98.414062 89.808594 99.238281 90.191406 99.375 C 89.796875 99.25 90.042969 98.578125 89.605469 98.097656 C 89.425781 97.90625 88.714844 97.683594 88.660156 97.21875 L 88.878906 96.308594 C 89.003906 95.898438 88.46875 95.910156 88.359375 95.320312 C 88.234375 94.6875 88.539062 94.113281 88.140625 94.082031 C 87.566406 94.042969 86.402344 93.917969 86.199219 93.246094 C 86.046875 92.75 86.429688 92.339844 86.664062 92.023438 C 87.238281 91.210938 86.867188 90.703125 86.074219 91.03125 C 84.335938 91.761719 82.339844 92.226562 80.503906 91.457031 C 80.230469 92.53125 83.503906 93.175781 84.1875 93.367188 C 87.484375 94.304688 85.144531 97.273438 87.347656 99.320312 C 87.742188 99.691406 88.125 99.910156 88.605469 100.144531 C 84.664062 98.605469 86.566406 95.511719 84.910156 94.425781 C 84.460938 94.140625 83.777344 94.042969 83.226562 93.945312 C 83.515625 94.769531 82.777344 95.390625 82.695312 95.691406 C 82.625 95.925781 82.734375 96.160156 82.898438 96.324219 C 83.40625 96.875 84.171875 96.667969 84.308594 97.230469 C 84.035156 96.722656 83.351562 96.941406 82.789062 96.433594 C 81.96875 95.664062 82.953125 95.195312 82.96875 94.425781 C 82.96875 93.808594 82.40625 93.796875 81.914062 93.671875 C 80.667969 93.367188 79.125 92.847656 79.289062 91.308594 C 79.316406 91.128906 79.34375 90.964844 79.398438 90.800781 L 78.632812 90.125 C 78.714844 91.128906 78.644531 91.925781 78.742188 92.902344 C 78.863281 93.742188 79.382812 94.550781 79.5625 95.363281 C 79.902344 96.710938 80.917969 97.148438 82.214844 97.546875 C 83.132812 97.824219 84.007812 97.972656 84.664062 98.648438 C 86.0625 100.0625 84.71875 100.996094 85.15625 101.917969 C 84.582031 100.96875 85.746094 100.089844 84.363281 98.976562 C 83.75 98.480469 82.886719 98.496094 82.023438 98.316406 C 80.765625 98.070312 79.464844 97.710938 78.714844 96.625 L 78.605469 97.589844 C 78.535156 98.621094 77.398438 99.582031 78.824219 99.789062 C 79.683594 99.910156 81.464844 99.855469 82.1875 100.761719 C 82.695312 101.394531 81.820312 101.863281 81.558594 102.359375 C 81.4375 102.589844 81.464844 102.8125 81.640625 103.03125 C 81 102.277344 82.242188 101.710938 82.175781 101.164062 C 82.148438 100.902344 81.832031 100.722656 81.601562 100.613281 C 81.09375 100.378906 80.628906 100.308594 80.148438 100.296875 C 80.257812 100.597656 80.191406 100.914062 80.09375 101.203125 C 79.917969 101.738281 79.398438 101.988281 79.273438 102.398438 C 79.234375 102.550781 79.246094 102.976562 79.480469 102.992188 C 79.246094 103.003906 79 102.496094 79.371094 101.945312 C 79.683594 101.464844 79.957031 101.203125 79.847656 100.542969 C 79.808594 100.335938 79.5625 100.378906 79.425781 100.308594 C 79.125 100.171875 77.78125 100.515625 77.5625 99.457031 C 77.097656 100.171875 76.894531 100.75 76.867188 101.574219 C 76.867188 101.847656 76.921875 102.015625 77.042969 102.261719 C 77.261719 102.648438 77.085938 102.414062 77.425781 102.769531 L 77.699219 103.292969 L 77.386719 102.8125 C 77.058594 102.507812 77.167969 102.6875 76.933594 102.332031 C 76.621094 101.835938 76.648438 101.421875 76.703125 100.832031 C 76.824219 99.800781 77.316406 99.167969 77.671875 98.507812 C 78.136719 97.644531 78.246094 96.023438 77.835938 95.15625 C 77.660156 94.796875 77.398438 94.441406 77.03125 93.3125 C 76.730469 92.226562 76.6875 91.113281 76.402344 89.972656 C 76.304688 89.617188 76.195312 89.203125 76.058594 88.792969 C 75.921875 89.203125 75.8125 89.617188 75.714844 89.972656 C 75.429688 91.113281 75.386719 92.226562 75.085938 93.3125 C 74.71875 94.441406 74.445312 94.785156 74.28125 95.15625 C 73.871094 96.023438 73.980469 97.644531 74.445312 98.507812 C 74.800781 99.167969 75.277344 99.800781 75.414062 100.832031 C 75.46875 101.421875 75.484375 101.835938 75.183594 102.332031 C 74.828125 102.894531 74.8125 102.578125 74.59375 103.058594 L 74.429688 103.292969 L 74.703125 102.769531 C 75.058594 102.425781 74.882812 102.660156 75.085938 102.261719 C 75.347656 101.765625 75.25 101.367188 75.183594 100.847656 C 75.113281 100.363281 74.867188 99.910156 74.582031 99.472656 C 74.363281 100.53125 73.019531 100.1875 72.71875 100.324219 C 72.527344 100.40625 72.117188 100.253906 72.308594 101.132812 C 72.417969 101.628906 72.898438 101.945312 72.953125 102.386719 C 72.964844 102.535156 72.910156 103.003906 72.652344 103.003906 C 72.855469 102.992188 73.046875 102.523438 72.652344 102.042969 C 72.390625 101.753906 72.1875 101.589844 72.050781 101.203125 C 71.953125 100.914062 71.886719 100.585938 71.996094 100.296875 C 71.515625 100.324219 71.066406 100.390625 70.542969 100.613281 C 68.929688 101.4375 71.367188 102.042969 70.515625 103.046875 C 71.203125 102.152344 69.257812 101.65625 69.96875 100.792969 C 70.832031 99.71875 73.128906 100.007812 73.789062 99.707031 C 74.445312 99.390625 73.597656 98.398438 73.554688 97.628906 L 73.445312 96.667969 C 72.691406 97.738281 71.394531 98.109375 70.132812 98.359375 C 69.273438 98.523438 68.410156 98.523438 67.792969 99.019531 C 66.414062 100.132812 67.5625 101.011719 67 101.960938 C 67.4375 101.039062 66.097656 100.105469 67.492188 98.6875 C 68.902344 97.257812 71.953125 97.933594 72.597656 95.402344 C 72.789062 94.59375 73.308594 93.78125 73.417969 92.941406 C 73.515625 91.96875 73.445312 91.15625 73.527344 90.167969 L 72.761719 90.839844 C 73.019531 91.664062 72.855469 92.476562 72.117188 92.984375 C 71.570312 93.328125 70.914062 93.546875 70.242188 93.710938 C 69.765625 93.835938 69.191406 93.863281 69.191406 94.46875 C 69.203125 95.238281 70.1875 95.707031 69.367188 96.476562 C 68.808594 96.984375 68.121094 96.777344 67.847656 97.273438 C 67.984375 96.710938 68.753906 96.902344 69.257812 96.367188 C 69.914062 95.652344 68.972656 95.417969 68.863281 94.496094 C 68.847656 94.304688 68.863281 94.140625 68.917969 93.988281 C 68.09375 94.140625 67.179688 94.207031 66.753906 94.992188 C 65.945312 96.449219 66.960938 98.851562 63.539062 100.1875 C 64.332031 99.800781 65.085938 99.265625 65.496094 98.453125 C 66.453125 96.558594 65.125 94.207031 67.957031 93.398438 C 68.644531 93.203125 71.914062 92.570312 71.640625 91.484375 C 69.804688 92.253906 67.808594 91.800781 66.070312 91.058594 C 65.289062 90.730469 64.90625 91.238281 65.480469 92.050781 C 65.714844 92.367188 66.097656 92.777344 65.945312 93.273438 C 65.6875 94.140625 63.992188 94.054688 63.882812 94.152344 C 63.648438 94.34375 63.992188 95.210938 63.648438 95.679688 C 63.429688 95.980469 63.167969 96.023438 63.265625 96.339844 C 63.46875 97.039062 63.730469 97.3125 63.101562 97.765625 C 62.429688 98.261719 62.457031 97.972656 62.265625 98.824219 C 62.226562 99.019531 62.210938 99.320312 61.964844 99.390625 C 62.347656 99.25 62.0625 98.425781 62.472656 98.027344 C 63.003906 97.507812 63.441406 97.546875 63.195312 96.886719 L 62.894531 96.035156 C 62.199219 96.1875 61.472656 95.980469 61.160156 96.476562 C 60.761719 97.09375 61.105469 98.195312 59.96875 98.261719 C 61.335938 97.878906 60.417969 96.679688 61.253906 96.078125 C 61.746094 95.71875 63.113281 95.828125 63.332031 95.429688 C 63.566406 95.019531 62.867188 93.710938 63.964844 93.546875 C 64.332031 93.492188 64.742188 93.410156 65.085938 93.246094 C 65.316406 93.082031 65.480469 93.148438 64.921875 92.515625 C 64.332031 91.871094 64.019531 91.074219 64.605469 90.316406 C 64.113281 90.058594 62.5 89.066406 61.992188 89.273438 L 61.269531 89.90625 C 62.226562 90.632812 62.417969 92.378906 61.9375 93.300781 C 61.144531 94.839844 59.023438 94.796875 58.367188 96.515625 C 58.996094 94.277344 62.648438 94.648438 61.636719 91.28125 C 61.515625 90.882812 61.324219 90.566406 60.992188 90.34375 C 60.472656 91.265625 60.160156 91.84375 59.296875 92.558594 C 58.175781 93.480469 56.039062 91.664062 54.015625 92.722656 C 55.683594 91.597656 57.640625 92.570312 58.625 92.242188 C 58.722656 92.199219 58.792969 92.171875 58.875 92.089844 C 59.679688 91.253906 59.722656 90.910156 60.144531 89.945312 C 59.558594 89.714844 58.804688 89.21875 59.039062 88.460938 C 59.148438 88.132812 59.433594 87.871094 59.734375 87.71875 C 60.773438 87.226562 62.363281 87.679688 63.359375 88.089844 C 64.878906 88.710938 66.042969 89.300781 67.710938 89.617188 C 66.863281 88.40625 67.015625 87.253906 65.945312 87.429688 C 65.167969 87.554688 64.496094 88.078125 63.238281 87.335938 C 62.746094 87.03125 62.375 86.675781 61.925781 86.304688 C 61.324219 87.488281 59.640625 87.652344 58.503906 87.679688 C 58.296875 88.792969 58.214844 89.644531 57.449219 90.125 C 57 90.386719 56.5625 90.441406 56.054688 90.441406 C 57.984375 90.34375 58.09375 89.285156 58.285156 87.679688 C 57.175781 87.691406 53.25 87.019531 52.621094 87.691406 C 51.9375 88.40625 54.414062 88.722656 53.003906 90.550781 C 53.359375 90.015625 53.5625 89.453125 53.085938 88.929688 C 52.839844 88.65625 51.867188 88.105469 52.429688 87.488281 C 52.703125 87.199219 53.207031 87.046875 53.589844 86.992188 C 54.988281 86.8125 56.890625 87.03125 58.40625 86.882812 C 58.710938 85.410156 59.285156 85.21875 60.652344 85.261719 C 60.816406 85.273438 60.953125 85.289062 61.089844 85.316406 C 61.226562 84.585938 61.417969 83.734375 62.210938 83.265625 C 62.910156 82.867188 63.703125 83.019531 64.429688 83.253906 C 65.113281 83.472656 65.726562 83.691406 66.386719 83.859375 C 64.742188 83.238281 61.84375 81.09375 60.515625 83.347656 C 59.613281 84.875 59.421875 85.835938 57.546875 85.464844 C 57.164062 85.398438 56.671875 85.203125 56.289062 85.175781 C 55.507812 85.121094 54.316406 85.699219 53.878906 84.546875 C 53.769531 84.230469 53.769531 83.953125 53.769531 83.625 C 52.402344 83.472656 51.375 83.609375 49.992188 84.230469 C 51.320312 83.460938 52.347656 83.183594 53.730469 83.128906 C 53.632812 82.632812 53.234375 82.25 52.730469 82.167969 C 52.085938 82.097656 51.527344 82.675781 50.445312 82.578125 C 51.8125 82.632812 52.359375 81.617188 53.34375 82.25 C 53.660156 82.457031 53.867188 82.773438 53.949219 83.117188 C 55.042969 83.089844 56.65625 83.363281 57.601562 83.074219 C 59.039062 82.632812 59.859375 80.269531 62.5 80.53125 C 66.140625 80.957031 69.53125 83.460938 71.378906 79.804688 C 72.0625 78.457031 72.582031 76.53125 72.050781 75.089844 C 71.597656 73.851562 70.449219 72.890625 68.355469 72.78125 C 65.261719 72.78125 63.25 74.320312 60.050781 74.898438 C 57.382812 75.199219 55.929688 74.636719 53.480469 73.785156 C 52.578125 73.480469 51.828125 73.246094 50.867188 73.179688 C 49.816406 73.136719 49.117188 73.328125 48.199219 73.839844 C 49.078125 73.207031 49.789062 72.917969 50.867188 72.820312 C 51.882812 72.765625 52.6875 72.917969 53.660156 73.125 C 55.957031 73.589844 57.394531 73.976562 59.761719 73.453125 C 62.457031 72.671875 63.730469 71.445312 65.972656 70.71875 C 64.496094 70.445312 63.222656 70.183594 61.828125 69.605469 C 60.828125 69.164062 60.078125 68.699219 59.449219 68.011719 C 59.175781 67.914062 58.886719 67.816406 58.558594 67.722656 C 57.300781 67.378906 56.191406 67.28125 54.90625 67.160156 C 53.878906 67.074219 52.796875 67.035156 51.855469 66.582031 C 51.457031 66.375 51.195312 66.167969 50.976562 65.769531 C 50.773438 65.304688 50.757812 64.90625 50.8125 64.410156 C 50.828125 64.875 50.894531 65.277344 51.167969 65.648438 C 51.402344 65.949219 51.648438 66.074219 52.003906 66.195312 C 52.90625 66.402344 53.988281 66.292969 54.90625 66.222656 C 55.082031 66.210938 55.273438 66.195312 55.4375 66.183594 C 56.382812 66.101562 57.246094 66.058594 58.1875 66.113281 C 57.859375 65.34375 57.710938 64.628906 57.667969 63.695312 C 57.628906 62.746094 57.722656 61.921875 57.804688 60.972656 C 57.875 60.175781 57.929688 59.476562 57.792969 58.679688 C 57.710938 58.308594 57.613281 58.03125 57.410156 57.714844 C 57.175781 57.34375 56.945312 57.125 56.589844 56.863281 C 56.972656 57.082031 57.246094 57.289062 57.546875 57.621094 C 57.804688 57.9375 57.957031 58.210938 58.09375 58.597656 C 58.367188 59.40625 58.40625 60.136719 58.433594 60.988281 C 58.476562 61.878906 58.488281 62.691406 58.65625 63.585938 C 58.847656 64.546875 59.105469 65.207031 59.667969 66.003906 C 60.460938 67.019531 61.242188 67.445312 62.472656 67.804688 C 63.773438 68.132812 65.003906 68.1875 66.332031 68.273438 C 67.601562 68.339844 69.011719 68.492188 70.296875 68.917969 C 73.636719 70.015625 75.703125 72.753906 75.429688 76.203125 C 75.785156 73.234375 75.320312 71.777344 73.253906 69.796875 C 72.761719 68.726562 72.023438 67.789062 71.269531 66.898438 C 69.847656 65.261719 68.683594 64.410156 67.097656 63.050781 C 65.46875 61.632812 64.742188 60.617188 64.25 58.484375 C 64.03125 57.054688 64.320312 55.75 64.484375 54.320312 C 64.550781 53.632812 64.59375 53.042969 64.511719 52.355469 C 64.402344 51.667969 64.238281 51.203125 63.785156 50.664062 C 64.320312 51.144531 64.578125 51.613281 64.796875 52.300781 C 65.003906 53 65.058594 53.621094 65.097656 54.363281 C 65.140625 55.585938 65.058594 57.015625 65.46875 58.167969 C 66.113281 59.859375 66.808594 60.480469 68.300781 61.398438 C 68.792969 61.6875 69.246094 61.9375 69.667969 62.167969 C 69.738281 61.277344 69.957031 60.464844 70.324219 59.515625 C 70.421875 59.296875 70.476562 59.0625 70.53125 58.828125 C 70.597656 58.457031 70.625 58.074219 70.542969 57.632812 C 70.339844 56.90625 69.996094 56.480469 69.53125 55.902344 C 68.972656 55.199219 68.574219 54.71875 68.285156 53.855469 C 68.148438 53.34375 68.109375 52.945312 68.136719 52.425781 C 68.203125 51.765625 68.339844 51.214844 68.546875 50.582031 C 68.449219 51.230469 68.421875 51.765625 68.519531 52.410156 C 68.589844 52.863281 68.671875 53.207031 68.902344 53.605469 C 69.285156 54.28125 69.738281 54.625 70.324219 55.117188 C 70.953125 55.625 71.378906 56.011719 71.777344 56.628906 C 72.351562 55.585938 72.910156 54.570312 73.265625 53.550781 C 73.375 53.125 73.375 52.835938 73.238281 52.425781 C 73.074219 52.011719 72.84375 51.722656 72.582031 51.367188 C 72.28125 50.980469 72.023438 50.652344 71.816406 50.199219 C 71.597656 49.675781 71.542969 49.289062 71.640625 48.726562 C 71.640625 49.261719 71.75 49.621094 72.050781 50.058594 C 72.324219 50.429688 72.625 50.707031 72.964844 51.007812 C 73.347656 51.351562 73.636719 51.628906 73.925781 52.066406 C 74.253906 52.628906 74.335938 53.085938 74.28125 53.730469 C 74.019531 55.859375 72.953125 57.964844 72.460938 60.148438 C 72.269531 61.195312 72.214844 62.03125 72.515625 63.0625 C 72.828125 63.914062 73.609375 64.875 74.527344 65.839844 C 75.839844 67.117188 76.867188 68.3125 77.398438 70.113281 C 77.398438 67.789062 79.152344 67.390625 78.808594 64.753906 C 78.328125 62.25 77.167969 61.578125 77.125 58.746094 C 77.25 56.738281 77.453125 55.1875 77.316406 53.140625 C 77.261719 51.667969 76.429688 49.414062 75.9375 48.011719 Z M 71.378906 88.683594 C 72.253906 87.746094 73.347656 86.578125 73.582031 85.273438 C 72.132812 86.660156 69.410156 86.058594 71.378906 88.683594 Z M 71.378906 88.683594 " fill-opacity="1" fill-rule="nonzero"/></g><path fill="#7da12d" d="M 68.5625 65.796875 C 68.5625 65.796875 65.878906 68.011719 64.085938 65.398438 C 64.074219 65.398438 66.835938 63.28125 68.5625 65.796875 " fill-opacity="1" fill-rule="evenodd"/><path fill="#7da12d" d="M 63.496094 59.378906 C 63.496094 59.378906 60.445312 59.449219 60.609375 56.671875 C 60.625 56.671875 63.664062 56.710938 63.496094 59.378906 " fill-opacity="1" fill-rule="evenodd"/><path fill="#7da12d" d="M 63.609375 54.347656 C 63.609375 54.347656 60.9375 54.511719 60.992188 52.082031 C 60.992188 52.066406 63.664062 52 63.609375 54.347656 " fill-opacity="1" fill-rule="evenodd"/><path fill="#7da12d" d="M 70.230469 54.292969 C 70.230469 54.292969 69.476562 52.246094 71.378906 51.722656 C 71.378906 51.722656 72.050781 53.800781 70.230469 54.292969 " fill-opacity="1" fill-rule="evenodd"/><g clip-path="url(#9b9d44c2bf)"><path fill="#7da12d" d="M 70.84375 49.855469 C 70.84375 49.855469 68.683594 49.757812 68.929688 47.792969 C 68.929688 47.792969 71.105469 47.972656 70.84375 49.855469 " fill-opacity="1" fill-rule="evenodd"/></g><path fill="#7da12d" d="M 65.835938 52.769531 C 65.835938 52.769531 64.976562 50.117188 67.4375 49.539062 C 67.4375 49.550781 68.203125 52.230469 65.835938 52.769531 " fill-opacity="1" fill-rule="evenodd"/><path fill="#7da12d" d="M 56.507812 60.890625 C 56.507812 60.890625 53.496094 60.382812 54.195312 57.6875 C 54.195312 57.6875 57.175781 58.308594 56.507812 60.890625 " fill-opacity="1" fill-rule="evenodd"/><path fill="#7da12d" d="M 58.1875 57.277344 C 58.1875 57.277344 57.066406 54.789062 59.394531 53.949219 C 59.394531 53.949219 60.433594 56.480469 58.1875 57.277344 " fill-opacity="1" fill-rule="evenodd"/><path fill="#7da12d" d="M 54.550781 65.371094 C 54.550781 65.371094 51.976562 64.792969 52.6875 62.484375 C 52.6875 62.484375 55.246094 63.160156 54.550781 65.371094 " fill-opacity="1" fill-rule="evenodd"/><path fill="#7da12d" d="M 69.339844 59.585938 C 69.339844 59.585938 65.972656 58.925781 66.824219 55.914062 C 66.824219 55.914062 70.175781 56.699219 69.339844 59.585938 " fill-opacity="1" fill-rule="evenodd"/><path fill="#7da12d" d="M 61.1875 65.234375 C 61.1875 65.234375 59.367188 62.773438 61.71875 61.316406 C 61.71875 61.316406 63.457031 63.832031 61.1875 65.234375 " fill-opacity="1" fill-rule="evenodd"/><path fill="#7da12d" d="M 57.464844 68.792969 C 57.464844 68.792969 55.65625 71.269531 53.578125 69.441406 C 53.578125 69.441406 55.464844 67.035156 57.464844 68.792969 " fill-opacity="1" fill-rule="evenodd"/><g clip-path="url(#8daca707ca)"><path fill="#7da12d" d="M 50.921875 66.898438 C 50.921875 66.898438 49.171875 68.890625 47.503906 67.144531 C 47.503906 67.144531 49.324219 65.207031 50.921875 66.898438 " fill-opacity="1" fill-rule="evenodd"/></g><path fill="#7da12d" d="M 60.542969 72.601562 C 60.542969 72.601562 57.710938 73.742188 56.902344 71.074219 C 56.902344 71.074219 59.761719 70.042969 60.542969 72.601562 " fill-opacity="1" fill-rule="evenodd"/><path fill="#7da12d" d="M 52.085938 71.996094 C 52.085938 71.996094 49.160156 72.464844 48.953125 69.757812 C 48.96875 69.769531 51.910156 69.414062 52.085938 71.996094 " fill-opacity="1" fill-rule="evenodd"/><path fill="#7da12d" d="M 77.933594 65.742188 C 77.933594 65.742188 74.757812 65.425781 75.292969 62.554688 C 75.292969 62.566406 78.453125 62.992188 77.933594 65.742188 " fill-opacity="1" fill-rule="evenodd"/><path fill="#7da12d" d="M 74.292969 60.3125 C 74.292969 60.3125 73.5 57.992188 75.648438 57.441406 C 75.660156 57.441406 76.375 59.792969 74.292969 60.3125 " fill-opacity="1" fill-rule="evenodd"/><path fill="#7da12d" d="M 76.730469 55.640625 C 76.730469 55.640625 74.636719 55.078125 75.304688 53.207031 C 75.304688 53.207031 77.371094 53.855469 76.730469 55.640625 " fill-opacity="1" fill-rule="evenodd"/><path fill="#7da12d" d="M 66.207031 74.25 C 66.207031 74.25 66.46875 77.300781 63.703125 77.300781 C 63.691406 77.300781 63.539062 74.238281 66.207031 74.25 " fill-opacity="1" fill-rule="evenodd"/><path fill="#7da12d" d="M 56.480469 75.898438 C 56.480469 75.898438 55.589844 78.636719 53.195312 77.605469 C 53.195312 77.605469 54.195312 74.910156 56.480469 75.898438 " fill-opacity="1" fill-rule="evenodd"/><g clip-path="url(#fbfa3255f0)"><path fill="#7da12d" d="M 50.402344 74.566406 C 50.402344 74.566406 50.457031 77.878906 47.476562 77.671875 C 47.476562 77.671875 47.53125 74.359375 50.402344 74.566406 " fill-opacity="1" fill-rule="evenodd"/></g><path fill="#7da12d" d="M 79.082031 53.675781 C 79.082031 53.675781 78.34375 51.078125 80.738281 50.597656 C 80.738281 50.597656 81.394531 53.222656 79.082031 53.675781 " fill-opacity="1" fill-rule="evenodd"/><g clip-path="url(#40ad0fe9fc)"><path fill="#7da12d" d="M 77.617188 50.117188 C 77.617188 50.117188 77.222656 48.121094 79.054688 47.917969 C 79.054688 47.917969 79.382812 49.921875 77.617188 50.117188 " fill-opacity="1" fill-rule="evenodd"/></g><path fill="#7da12d" d="M 73.652344 51.007812 C 73.652344 51.007812 72.773438 49.097656 74.554688 48.4375 C 74.554688 48.4375 75.375 50.390625 73.652344 51.007812 " fill-opacity="1" fill-rule="evenodd"/><path fill="#7da12d" d="M 82.953125 51.40625 C 82.953125 51.40625 81.628906 50.320312 82.722656 49.195312 C 82.707031 49.195312 83.996094 50.335938 82.953125 51.40625 " fill-opacity="1" fill-rule="evenodd"/><path fill="#7da12d" d="M 81.039062 62.429688 C 81.039062 62.429688 79.726562 58.953125 82.953125 58.03125 C 82.953125 58.03125 84.144531 61.550781 81.039062 62.429688 " fill-opacity="1" fill-rule="evenodd"/><path fill="#7da12d" d="M 80.601562 56.164062 C 80.601562 56.164062 82.296875 54.402344 83.75 56.082031 C 83.75 56.082031 81.996094 57.785156 80.601562 56.164062 " fill-opacity="1" fill-rule="evenodd"/><path fill="#7da12d" d="M 84.089844 53.222656 C 84.089844 53.222656 85.226562 51.050781 87.085938 52.246094 C 87.085938 52.246094 85.882812 54.375 84.089844 53.222656 " fill-opacity="1" fill-rule="evenodd"/><path fill="#7da12d" d="M 85.636719 62.566406 C 85.636719 62.566406 83.859375 61.097656 85.320312 59.597656 C 85.320312 59.597656 87.046875 61.136719 85.636719 62.566406 " fill-opacity="1" fill-rule="evenodd"/><path fill="#7da12d" d="M 86.636719 57.605469 C 86.636719 57.605469 84.363281 57.027344 85.046875 55.007812 C 85.046875 55.007812 87.304688 55.667969 86.636719 57.605469 " fill-opacity="1" fill-rule="evenodd"/><path fill="#7da12d" d="M 85.5 69.082031 C 85.5 69.082031 85.9375 65.757812 88.90625 66.417969 C 88.90625 66.417969 88.347656 69.714844 85.5 69.082031 " fill-opacity="1" fill-rule="evenodd"/><path fill="#7da12d" d="M 92.503906 58.539062 C 92.503906 58.539062 93.328125 55.710938 95.804688 56.671875 C 95.804688 56.671875 94.886719 59.460938 92.503906 58.539062 " fill-opacity="1" fill-rule="evenodd"/><path fill="#7da12d" d="M 90.535156 65.34375 C 90.535156 65.34375 92.804688 64.246094 93.628906 66.402344 C 93.628906 66.402344 91.316406 67.417969 90.535156 65.34375 " fill-opacity="1" fill-rule="evenodd"/><path fill="#7da12d" d="M 95.351562 65.578125 C 95.351562 65.578125 95.296875 63.171875 97.472656 63.308594 C 97.472656 63.308594 97.429688 65.714844 95.351562 65.578125 " fill-opacity="1" fill-rule="evenodd"/><path fill="#7da12d" d="M 91.535156 76.449219 C 91.535156 76.449219 94.859375 75.171875 95.761719 78.292969 C 95.761719 78.292969 92.394531 79.445312 91.535156 76.449219 " fill-opacity="1" fill-rule="evenodd"/><path fill="#7da12d" d="M 92.683594 73.507812 C 92.683594 73.507812 92.75 71.101562 94.925781 71.351562 C 94.925781 71.335938 94.761719 73.753906 92.683594 73.507812 " fill-opacity="1" fill-rule="evenodd"/><path fill="#7da12d" d="M 97.855469 73.027344 C 97.855469 73.027344 97.921875 70.621094 100.097656 70.871094 C 100.085938 70.855469 99.933594 73.273438 97.855469 73.027344 " fill-opacity="1" fill-rule="evenodd"/><path fill="#7da12d" d="M 92.683594 73.496094 C 92.683594 73.496094 92.765625 70.566406 95.390625 70.871094 C 95.390625 70.882812 95.199219 73.796875 92.683594 73.496094 " fill-opacity="1" fill-rule="evenodd"/><path fill="#7da12d" d="M 95.40625 68.464844 C 95.40625 68.464844 97.28125 67.242188 98.253906 69.042969 C 98.238281 69.042969 96.324219 70.210938 95.40625 68.464844 " fill-opacity="1" fill-rule="evenodd"/><path fill="#7da12d" d="M 92.65625 55.242188 C 92.65625 55.242188 91.78125 52.878906 93.984375 52.273438 C 93.984375 52.273438 94.777344 54.664062 92.65625 55.242188 " fill-opacity="1" fill-rule="evenodd"/><path fill="#7da12d" d="M 89.070312 56.808594 C 89.070312 56.808594 88.25 54.941406 90 54.335938 C 90 54.347656 90.753906 56.246094 89.070312 56.808594 " fill-opacity="1" fill-rule="evenodd"/><path fill="#7da12d" d="M 84.609375 74.8125 C 84.609375 74.8125 86.675781 76.367188 85.117188 78.125 C 85.117188 78.125 83.105469 76.503906 84.609375 74.8125 " fill-opacity="1" fill-rule="evenodd"/><path fill="#7da12d" d="M 97.785156 75.527344 C 97.785156 75.527344 99.894531 74.359375 100.785156 76.367188 C 100.785156 76.382812 98.636719 77.46875 97.785156 75.527344 " fill-opacity="1" fill-rule="evenodd"/><path fill="#7da12d" d="M 92.3125 62.539062 C 92.3125 62.539062 92.257812 59.996094 94.558594 60.136719 C 94.558594 60.136719 94.515625 62.679688 92.3125 62.539062 " fill-opacity="1" fill-rule="evenodd"/><g clip-path="url(#1ad3403004)"><path fill="#eeeae0" d="M 25.980469 55.765625 L 40.714844 55.765625 L 40.714844 94.21875 L 25.980469 94.21875 Z M 25.980469 55.765625 " fill-opacity="1" fill-rule="nonzero"/></g><g fill="#7da12d" fill-opacity="1"><g transform="translate(46.648381, 50.28804)"><g><path d="M -7.15625 -10.015625 L -3.59375 -12.875 C -2.539062 -13.726562 -1.460938 -14.28125 -0.359375 -14.53125 C 0.734375 -14.78125 1.785156 -14.722656 2.796875 -14.359375 C 3.804688 -13.992188 4.695312 -13.328125 5.46875 -12.359375 C 6.738281 -10.773438 7.234375 -9.191406 6.953125 -7.609375 C 6.679688 -6.035156 5.71875 -4.585938 4.0625 -3.265625 L 0.546875 -0.4375 Z M 2.359375 -5.828125 C 3.054688 -6.390625 3.421875 -7.039062 3.453125 -7.78125 C 3.484375 -8.53125 3.191406 -9.28125 2.578125 -10.03125 C 2.035156 -10.71875 1.394531 -11.128906 0.65625 -11.265625 C -0.0820312 -11.410156 -0.785156 -11.210938 -1.453125 -10.671875 L -2.390625 -9.921875 L 1.46875 -5.109375 Z M 2.359375 -5.828125 "/></g></g></g><g fill="#7da12d" fill-opacity="1"><g transform="translate(56.007365, 42.66119)"><g><path d="M 6.078125 -1.953125 C 4.859375 -1.503906 3.765625 -1.351562 2.796875 -1.5 C 1.828125 -1.65625 1 -2.054688 0.3125 -2.703125 C -0.363281 -3.359375 -0.890625 -4.195312 -1.265625 -5.21875 L -3.671875 -11.734375 L -0.265625 -13 L 2.125 -6.53125 C 2.382812 -5.8125 2.75 -5.332031 3.21875 -5.09375 C 3.695312 -4.863281 4.265625 -4.867188 4.921875 -5.109375 C 5.566406 -5.347656 5.988281 -5.707031 6.1875 -6.1875 C 6.382812 -6.675781 6.351562 -7.28125 6.09375 -8 L 3.703125 -14.46875 L 7.125 -15.71875 L 9.53125 -9.203125 C 9.90625 -8.179688 10.039062 -7.203125 9.9375 -6.265625 C 9.84375 -5.328125 9.472656 -4.484375 8.828125 -3.734375 C 8.191406 -2.992188 7.273438 -2.398438 6.078125 -1.953125 Z M 6.078125 -1.953125 "/></g></g></g><g fill="#7da12d" fill-opacity="1"><g transform="translate(67.701903, 38.378296)"><g><path d="M 0.265625 -12.3125 L 6.6875 -12.53125 C 7.882812 -12.570312 8.851562 -12.3125 9.59375 -11.75 C 10.332031 -11.1875 10.722656 -10.359375 10.765625 -9.265625 C 10.773438 -8.765625 10.679688 -8.296875 10.484375 -7.859375 C 10.285156 -7.421875 9.984375 -7.054688 9.578125 -6.765625 C 10.160156 -6.523438 10.59375 -6.195312 10.875 -5.78125 C 11.15625 -5.375 11.304688 -4.832031 11.328125 -4.15625 C 11.359375 -3.394531 11.203125 -2.722656 10.859375 -2.140625 C 10.515625 -1.554688 10.039062 -1.101562 9.4375 -0.78125 C 8.832031 -0.457031 8.15625 -0.285156 7.40625 -0.265625 L 0.703125 -0.03125 Z M 5.90625 -7.75 C 6.3125 -7.757812 6.613281 -7.859375 6.8125 -8.046875 C 7.007812 -8.234375 7.097656 -8.519531 7.078125 -8.90625 C 7.066406 -9.300781 6.957031 -9.578125 6.75 -9.734375 C 6.550781 -9.890625 6.238281 -9.957031 5.8125 -9.9375 L 4 -9.875 L 4.078125 -7.6875 Z M 6.296875 -2.828125 C 6.773438 -2.835938 7.125 -2.929688 7.34375 -3.109375 C 7.5625 -3.296875 7.660156 -3.609375 7.640625 -4.046875 C 7.628906 -4.472656 7.503906 -4.78125 7.265625 -4.96875 C 7.035156 -5.15625 6.671875 -5.238281 6.171875 -5.21875 L 4.171875 -5.15625 L 4.25 -2.75 Z M 6.296875 -2.828125 "/></g></g></g><g fill="#7da12d" fill-opacity="1"><g transform="translate(79.412067, 38.119922)"><g><path d="M 3.640625 -11.765625 L 7.171875 -10.890625 L 4.953125 -1.921875 L 9.78125 -0.734375 L 9.046875 2.234375 L 0.6875 0.171875 Z M 3.640625 -11.765625 "/></g></g></g><g fill="#7da12d" fill-opacity="1"><g transform="translate(88.668928, 40.653164)"><g><path d="M 5.890625 -10.828125 L 9.171875 -9.265625 L 3.921875 1.859375 L 0.640625 0.296875 Z M 5.890625 -10.828125 "/></g></g></g><g fill="#7da12d" fill-opacity="1"><g transform="translate(93.567981, 42.506812)"><g><path d="M 8.25 -9.15625 L 11 -6.9375 L 9.96875 0.5 L 14 -4.53125 L 16.84375 -2.25 L 9.140625 7.34375 L 6.390625 5.140625 L 7.421875 -2.296875 L 3.390625 2.71875 L 0.546875 0.4375 Z M 8.25 -9.15625 "/></g></g></g><g clip-path="url(#565d1914c6)"><path fill="#eeeae0" d="M 109.15625 55.765625 L 123.890625 55.765625 L 123.890625 94.21875 L 109.15625 94.21875 Z M 109.15625 55.765625 " fill-opacity="1" fill-rule="nonzero"/></g><g fill="#7da12d" fill-opacity="1"><g transform="translate(52.914517, 117.748551)"><g><path d="M 3.796875 -8.4375 L 6.984375 -7.203125 C 7.941406 -6.835938 8.707031 -6.347656 9.28125 -5.734375 C 9.863281 -5.117188 10.222656 -4.410156 10.359375 -3.609375 C 10.503906 -2.816406 10.414062 -1.988281 10.09375 -1.125 C 9.539062 0.300781 8.695312 1.21875 7.5625 1.625 C 6.4375 2.039062 5.132812 1.96875 3.65625 1.40625 L 0.5 0.1875 Z M 4.6875 -0.671875 C 5.3125 -0.421875 5.867188 -0.425781 6.359375 -0.6875 C 6.859375 -0.957031 7.238281 -1.429688 7.5 -2.109375 C 7.726562 -2.722656 7.742188 -3.300781 7.546875 -3.84375 C 7.359375 -4.382812 6.960938 -4.769531 6.359375 -5 L 5.53125 -5.3125 L 3.875 -0.96875 Z M 4.6875 -0.671875 "/></g></g></g><g fill="#7da12d" fill-opacity="1"><g transform="translate(63.57899, 121.64383)"><g><path d="M 5.171875 0.859375 C 4.253906 0.742188 3.441406 0.441406 2.734375 -0.046875 C 2.035156 -0.546875 1.515625 -1.179688 1.171875 -1.953125 C 0.835938 -2.734375 0.726562 -3.597656 0.84375 -4.546875 C 0.957031 -5.472656 1.273438 -6.269531 1.796875 -6.9375 C 2.328125 -7.613281 2.992188 -8.101562 3.796875 -8.40625 C 4.609375 -8.707031 5.472656 -8.800781 6.390625 -8.6875 C 7.328125 -8.570312 8.140625 -8.269531 8.828125 -7.78125 C 9.523438 -7.289062 10.039062 -6.648438 10.375 -5.859375 C 10.71875 -5.078125 10.832031 -4.222656 10.71875 -3.296875 C 10.601562 -2.347656 10.28125 -1.539062 9.75 -0.875 C 9.226562 -0.21875 8.566406 0.257812 7.765625 0.5625 C 6.972656 0.875 6.109375 0.972656 5.171875 0.859375 Z M 5.5 -1.6875 C 5.90625 -1.632812 6.285156 -1.675781 6.640625 -1.8125 C 6.992188 -1.957031 7.285156 -2.179688 7.515625 -2.484375 C 7.742188 -2.796875 7.890625 -3.179688 7.953125 -3.640625 C 8.035156 -4.304688 7.894531 -4.867188 7.53125 -5.328125 C 7.175781 -5.785156 6.6875 -6.054688 6.0625 -6.140625 C 5.4375 -6.222656 4.890625 -6.085938 4.421875 -5.734375 C 3.953125 -5.378906 3.675781 -4.867188 3.59375 -4.203125 C 3.53125 -3.742188 3.570312 -3.332031 3.71875 -2.96875 C 3.875 -2.613281 4.109375 -2.320312 4.421875 -2.09375 C 4.742188 -1.875 5.101562 -1.738281 5.5 -1.6875 Z M 5.5 -1.6875 "/></g></g></g><g fill="#7da12d" fill-opacity="1"><g transform="translate(76.048592, 122.888679)"><g><path d="M 4.359375 -10.34375 C 3.546875 -10.25 2.894531 -10.390625 2.40625 -10.765625 C 1.914062 -11.140625 1.628906 -11.707031 1.546875 -12.46875 L 3.5 -12.6875 C 3.5625 -12.15625 3.789062 -11.914062 4.1875 -11.96875 C 4.582031 -12.007812 4.75 -12.296875 4.6875 -12.828125 L 6.640625 -13.046875 C 6.722656 -12.285156 6.566406 -11.664062 6.171875 -11.1875 C 5.773438 -10.71875 5.171875 -10.4375 4.359375 -10.34375 Z M 5.3125 -0.390625 C 4.289062 -0.273438 3.378906 -0.367188 2.578125 -0.671875 C 1.773438 -0.984375 1.128906 -1.472656 0.640625 -2.140625 C 0.148438 -2.804688 -0.144531 -3.628906 -0.25 -4.609375 C -0.363281 -5.597656 -0.257812 -6.472656 0.0625 -7.234375 C 0.382812 -8.003906 0.90625 -8.617188 1.625 -9.078125 C 2.34375 -9.546875 3.210938 -9.835938 4.234375 -9.953125 C 5.597656 -10.109375 6.703125 -9.976562 7.546875 -9.5625 L 7.828125 -7.0625 C 7.398438 -7.300781 6.9375 -7.457031 6.4375 -7.53125 C 5.9375 -7.613281 5.378906 -7.617188 4.765625 -7.546875 C 3.929688 -7.453125 3.328125 -7.175781 2.953125 -6.71875 C 2.578125 -6.269531 2.429688 -5.671875 2.515625 -4.921875 C 2.597656 -4.148438 2.863281 -3.585938 3.3125 -3.234375 C 3.769531 -2.878906 4.382812 -2.742188 5.15625 -2.828125 C 5.53125 -2.867188 5.828125 -2.957031 6.046875 -3.09375 L 5.90625 -4.265625 L 4.65625 -4.125 L 4.46875 -5.84375 L 8.203125 -6.265625 L 8.71875 -1.671875 C 7.851562 -0.984375 6.71875 -0.554688 5.3125 -0.390625 Z M 5.3125 -0.390625 "/></g></g></g><g fill="#7da12d" fill-opacity="1"><g transform="translate(87.148935, 121.465425)"><g><path d="M 0.53125 -10.046875 L 3 -10.953125 L 9.640625 -3.546875 L 7.015625 -2.578125 L 5.75 -3.984375 L 2.921875 -2.9375 L 2.875 -1.0625 L 0.25 -0.09375 Z M 4.46875 -5.71875 L 2.71875 -7.84375 L 2.8125 -5.109375 Z M 4.46875 -5.71875 "/></g></g></g><g clip-path="url(#7cf7638a52)"><g clip-path="url(#f2826f3c00)"><g clip-path="url(#fe979306af)"><path fill="#334d2b" d="M 114.234375 91.625 C 114.179688 91.625 114.125 91.609375 114.078125 91.574219 C 113.964844 91.492188 113.9375 91.332031 114.019531 91.214844 C 114.042969 91.183594 116.191406 88.15625 117.5625 83.386719 C 118.363281 80.59375 118.746094 77.753906 118.695312 74.949219 C 118.632812 71.449219 117.890625 67.992188 116.492188 64.679688 C 116.433594 64.546875 116.496094 64.398438 116.628906 64.34375 C 116.757812 64.285156 116.910156 64.347656 116.964844 64.480469 C 118.390625 67.859375 119.148438 71.382812 119.210938 74.953125 C 119.261719 77.808594 118.871094 80.703125 118.050781 83.550781 C 116.65625 88.398438 114.460938 91.484375 114.4375 91.515625 C 114.390625 91.585938 114.3125 91.621094 114.234375 91.625 Z M 114.234375 91.625 " fill-opacity="1" fill-rule="nonzero"/></g></g></g><g clip-path="url(#d0f0c53e46)"><g clip-path="url(#53f0475d3d)"><g clip-path="url(#050ba76be7)"><path fill="#334d2b" d="M 117.089844 68.386719 C 117.09375 68.359375 117.089844 68.332031 117.074219 68.300781 C 116.703125 67.445312 116.441406 66.632812 115.757812 65.964844 C 115.445312 65.65625 115.070312 65.414062 114.695312 65.195312 C 114.492188 65.078125 114.277344 64.992188 114.0625 64.90625 C 113.726562 64.695312 113.359375 64.527344 112.980469 64.382812 C 112.46875 64.132812 111.929688 63.925781 111.386719 63.765625 C 111.316406 63.742188 111.230469 63.808594 111.238281 63.882812 C 111.316406 64.726562 111.214844 65.589844 111.527344 66.394531 C 111.773438 67.042969 112.332031 67.546875 112.910156 67.898438 C 114.105469 68.628906 115.664062 68.765625 117.03125 68.609375 C 117.15625 68.597656 117.171875 68.433594 117.089844 68.386719 Z M 111.753906 66.324219 C 111.527344 65.828125 111.511719 65.265625 111.503906 64.710938 C 111.652344 65.640625 111.773438 66.539062 112.40625 67.230469 C 112.132812 66.972656 111.90625 66.667969 111.753906 66.324219 Z M 112.300781 66.355469 C 112.5 66.707031 112.757812 67.027344 113.066406 67.28125 C 113.101562 67.308594 113.132812 67.332031 113.167969 67.359375 C 112.746094 67.085938 112.480469 66.742188 112.300781 66.355469 Z M 112.300781 66.355469 " fill-opacity="1" fill-rule="nonzero"/></g></g></g><g clip-path="url(#4427b2b811)"><g clip-path="url(#042106b9e6)"><g clip-path="url(#ab178e7dcd)"><path fill="#334d2b" d="M 119.65625 78.816406 C 120.800781 78.886719 122.089844 78.703125 123.058594 78.046875 C 123.523438 77.726562 123.964844 77.285156 124.144531 76.734375 C 124.367188 76.050781 124.25 75.335938 124.277344 74.628906 C 124.277344 74.566406 124.207031 74.515625 124.148438 74.539062 C 123.703125 74.695312 123.265625 74.890625 122.84375 75.121094 C 122.539062 75.257812 122.242188 75.414062 121.96875 75.601562 C 121.792969 75.683594 121.617188 75.765625 121.453125 75.871094 C 121.148438 76.066406 120.851562 76.289062 120.601562 76.554688 C 120.0625 77.144531 119.878906 77.828125 119.605469 78.558594 C 119.59375 78.585938 119.59375 78.609375 119.59375 78.628906 C 119.527344 78.675781 119.550781 78.808594 119.65625 78.816406 Z M 123.445312 77.464844 C 123.945312 76.863281 124.007812 76.109375 124.089844 75.332031 C 124.109375 75.792969 124.117188 76.261719 123.953125 76.6875 C 123.839844 76.980469 123.664062 77.242188 123.445312 77.464844 Z M 122.816406 77.609375 C 122.84375 77.585938 122.871094 77.5625 122.898438 77.539062 C 123.148438 77.3125 123.347656 77.035156 123.496094 76.734375 C 123.363281 77.0625 123.15625 77.363281 122.816406 77.609375 Z M 122.816406 77.609375 " fill-opacity="1" fill-rule="nonzero"/></g></g></g><g clip-path="url(#22527566c9)"><g clip-path="url(#2bd76356c5)"><g clip-path="url(#137ebbf030)"><path fill="#334d2b" d="M 115.640625 87.421875 C 115.640625 87.398438 115.636719 87.371094 115.625 87.34375 C 115.296875 86.589844 115.066406 85.871094 114.460938 85.28125 C 114.183594 85.011719 113.855469 84.792969 113.523438 84.601562 C 113.34375 84.5 113.152344 84.425781 112.964844 84.347656 C 112.664062 84.160156 112.34375 84.011719 112.007812 83.886719 C 111.554688 83.664062 111.078125 83.480469 110.597656 83.339844 C 110.535156 83.320312 110.460938 83.375 110.46875 83.441406 C 110.535156 84.1875 110.449219 84.949219 110.722656 85.664062 C 110.941406 86.234375 111.433594 86.679688 111.945312 86.992188 C 113.003906 87.636719 114.378906 87.757812 115.585938 87.621094 C 115.695312 87.609375 115.710938 87.464844 115.640625 87.421875 Z M 110.921875 85.601562 C 110.726562 85.160156 110.710938 84.664062 110.703125 84.175781 C 110.835938 84.996094 110.941406 85.789062 111.5 86.398438 C 111.261719 86.171875 111.058594 85.90625 110.921875 85.601562 Z M 111.410156 85.625 C 111.585938 85.9375 111.808594 86.21875 112.085938 86.445312 C 112.113281 86.46875 112.144531 86.492188 112.171875 86.515625 C 111.800781 86.273438 111.566406 85.96875 111.410156 85.625 Z M 111.410156 85.625 " fill-opacity="1" fill-rule="nonzero"/></g></g></g><g clip-path="url(#88d4b987bf)"><g clip-path="url(#49993fb75b)"><g clip-path="url(#4643798654)"><path fill="#334d2b" d="M 122.765625 62.128906 C 122.742188 62.082031 122.667969 62.050781 122.617188 62.070312 C 121.425781 62.566406 120.367188 63.300781 119.691406 64.417969 C 119.011719 65.546875 118.914062 66.917969 119.078125 68.199219 C 119.082031 68.242188 119.105469 68.273438 119.132812 68.292969 C 119.136719 68.375 119.203125 68.453125 119.296875 68.410156 C 120.105469 68.058594 120.921875 67.753906 121.632812 67.21875 C 122.109375 66.863281 122.425781 66.308594 122.660156 65.773438 C 123.132812 64.6875 123.378906 63.207031 122.765625 62.128906 Z M 119.316406 66.484375 C 119.328125 66.496094 119.339844 66.503906 119.351562 66.511719 C 119.347656 66.667969 119.351562 66.824219 119.359375 66.984375 C 119.328125 67.078125 119.300781 67.175781 119.277344 67.273438 C 119.277344 67.007812 119.285156 66.746094 119.316406 66.484375 Z M 122.527344 63.933594 C 122.515625 63.925781 122.5 63.914062 122.488281 63.910156 C 122.5 63.757812 122.503906 63.605469 122.496094 63.453125 C 122.519531 63.351562 122.539062 63.253906 122.554688 63.152344 C 122.585938 63.410156 122.566406 63.675781 122.527344 63.933594 Z M 122.527344 63.933594 " fill-opacity="1" fill-rule="nonzero"/></g></g></g><g clip-path="url(#db7d179c7c)"><g clip-path="url(#94333b248e)"><g clip-path="url(#5647ac57a8)"><path fill="#334d2b" d="M 123.695312 85.675781 C 123.707031 85.621094 123.671875 85.550781 123.617188 85.535156 C 122.390625 85.140625 121.105469 85.015625 119.871094 85.433594 C 118.621094 85.851562 117.660156 86.835938 116.953125 87.917969 C 116.929688 87.953125 116.925781 87.992188 116.933594 88.027344 C 116.886719 88.089844 116.886719 88.191406 116.984375 88.21875 C 117.828125 88.472656 118.648438 88.773438 119.535156 88.824219 C 120.132812 88.859375 120.730469 88.640625 121.253906 88.382812 C 122.316406 87.863281 123.464844 86.894531 123.695312 85.675781 Z M 118.246094 86.761719 C 118.246094 86.777344 118.253906 86.792969 118.257812 86.808594 C 118.148438 86.921875 118.050781 87.046875 117.957031 87.171875 C 117.871094 87.222656 117.785156 87.277344 117.707031 87.34375 C 117.875 87.136719 118.054688 86.945312 118.246094 86.761719 Z M 122.34375 86.898438 C 122.339844 86.882812 122.335938 86.867188 122.332031 86.851562 C 122.4375 86.746094 122.539062 86.632812 122.632812 86.511719 C 122.714844 86.449219 122.796875 86.386719 122.871094 86.316406 C 122.730469 86.535156 122.542969 86.726562 122.34375 86.898438 Z M 122.34375 86.898438 " fill-opacity="1" fill-rule="nonzero"/></g></g></g><g clip-path="url(#324d9ca525)"><g clip-path="url(#56efd7ec77)"><g clip-path="url(#ad57cf96b8)"><path fill="#334d2b" d="M 112.09375 75.519531 C 112.054688 75.546875 112.027344 75.609375 112.050781 75.65625 C 112.515625 76.675781 113.1875 77.574219 114.183594 78.125 C 115.183594 78.683594 116.382812 78.722656 117.488281 78.542969 C 117.527344 78.535156 117.554688 78.515625 117.570312 78.492188 C 117.644531 78.484375 117.707031 78.425781 117.667969 78.347656 C 117.335938 77.65625 117.046875 76.949219 116.558594 76.347656 C 116.234375 75.945312 115.742188 75.6875 115.265625 75.503906 C 114.308594 75.125 113.015625 74.957031 112.09375 75.519531 Z M 115.992188 78.390625 C 116 78.378906 116.007812 78.367188 116.011719 78.355469 C 116.148438 78.355469 116.285156 78.347656 116.421875 78.335938 C 116.507812 78.359375 116.589844 78.382812 116.679688 78.394531 C 116.449219 78.40625 116.21875 78.40625 115.992188 78.390625 Z M 113.671875 75.675781 C 113.664062 75.683594 113.65625 75.695312 113.652344 75.707031 C 113.519531 75.703125 113.386719 75.703125 113.253906 75.714844 C 113.167969 75.695312 113.078125 75.683594 112.988281 75.675781 C 113.214844 75.636719 113.445312 75.648438 113.671875 75.675781 Z M 113.671875 75.675781 " fill-opacity="1" fill-rule="nonzero"/></g></g></g><g clip-path="url(#bed60c4983)"><g clip-path="url(#f02e5bdf2f)"><g clip-path="url(#3ecb6c1f0c)"><path fill="#334d2b" d="M 117.960938 73.378906 C 117.855469 73.085938 117.800781 72.78125 117.695312 72.492188 C 117.589844 72.210938 117.394531 71.949219 117.214844 71.710938 C 116.851562 71.222656 116.335938 70.878906 115.8125 70.582031 C 114.742188 69.976562 113.453125 69.605469 112.226562 69.851562 C 112.164062 69.863281 112.121094 69.898438 112.097656 69.941406 C 112.03125 70 112.03125 70.113281 112.101562 70.15625 C 112.511719 71.253906 112.925781 72.464844 113.851562 73.242188 C 114.769531 74.015625 115.96875 73.933594 117.078125 73.734375 C 117.105469 73.730469 117.132812 73.726562 117.15625 73.71875 C 117.332031 73.714844 117.507812 73.691406 117.675781 73.652344 C 117.691406 73.65625 117.707031 73.65625 117.722656 73.660156 C 117.902344 73.703125 118.023438 73.546875 117.960938 73.378906 Z M 115.59375 70.917969 C 116.058594 71.171875 116.492188 71.476562 116.835938 71.878906 C 116.570312 71.652344 116.277344 71.460938 115.972656 71.28125 C 115.574219 70.980469 115.140625 70.714844 114.683594 70.5 C 115 70.617188 115.304688 70.757812 115.59375 70.917969 Z M 115.59375 70.917969 " fill-opacity="1" fill-rule="nonzero"/></g></g></g><g clip-path="url(#9537e5af1b)"><g clip-path="url(#b8b02e2f46)"><g clip-path="url(#0bf3890cff)"><path fill="#334d2b" d="M 118.769531 83.40625 C 119.070312 83.46875 119.359375 83.582031 119.660156 83.644531 C 119.953125 83.707031 120.28125 83.679688 120.578125 83.652344 C 121.183594 83.601562 121.75 83.34375 122.277344 83.054688 C 123.355469 82.46875 124.351562 81.570312 124.792969 80.398438 C 124.816406 80.335938 124.808594 80.28125 124.78125 80.238281 C 124.769531 80.15625 124.671875 80.09375 124.597656 80.128906 C 123.449219 79.894531 122.199219 79.613281 121.054688 79.984375 C 119.910156 80.355469 119.347656 81.417969 118.929688 82.464844 C 118.921875 82.492188 118.910156 82.515625 118.902344 82.542969 C 118.816406 82.695312 118.742188 82.855469 118.683594 83.019531 C 118.675781 83.03125 118.664062 83.042969 118.65625 83.054688 C 118.523438 83.1875 118.59375 83.367188 118.769531 83.40625 Z M 122.105469 82.695312 C 121.644531 82.957031 121.160156 83.160156 120.636719 83.242188 C 120.96875 83.136719 121.285156 82.988281 121.597656 82.824219 C 122.0625 82.644531 122.519531 82.417969 122.941406 82.140625 C 122.675781 82.347656 122.394531 82.53125 122.105469 82.695312 Z M 122.105469 82.695312 " fill-opacity="1" fill-rule="nonzero"/></g></g></g><g clip-path="url(#6000a20bff)"><g clip-path="url(#ba3e0e39a9)"><g clip-path="url(#69cb0f0dee)"><path fill="#334d2b" d="M 124.398438 68.265625 C 124.34375 68.152344 124.171875 68.128906 124.074219 68.191406 C 123.125 68.78125 122.117188 69.265625 121.230469 69.957031 C 120.878906 70.234375 120.535156 70.554688 120.269531 70.921875 C 119.777344 71.46875 119.542969 72.167969 119.453125 73 C 119.441406 73.101562 119.550781 73.128906 119.625 73.089844 C 120.0625 73.546875 120.8125 73.535156 121.394531 73.472656 C 122.019531 73.410156 122.722656 73.253906 123.25 72.890625 C 123.941406 72.410156 124.378906 71.53125 124.542969 70.722656 C 124.695312 69.964844 124.722656 68.984375 124.398438 68.265625 Z M 124.398438 68.265625 " fill-opacity="1" fill-rule="nonzero"/></g></g></g><g clip-path="url(#33a47a209f)"><g clip-path="url(#50d2dd2ed2)"><g clip-path="url(#764eab8704)"><path fill="#334d2b" d="M 116.921875 83.117188 C 116.824219 82.933594 116.722656 82.75 116.628906 82.566406 C 116.65625 82.546875 116.671875 82.515625 116.660156 82.472656 C 116.464844 81.738281 116.15625 81.140625 115.636719 80.71875 C 115.347656 80.425781 114.996094 80.179688 114.636719 79.980469 C 113.746094 79.484375 112.769531 79.191406 111.835938 78.789062 C 111.738281 78.75 111.585938 78.792969 111.554688 78.902344 C 111.359375 79.59375 111.523438 80.472656 111.769531 81.132812 C 112.027344 81.835938 112.542969 82.566406 113.234375 82.902344 C 113.40625 82.988281 113.597656 83.046875 113.792969 83.089844 C 114.695312 83.425781 115.851562 83.207031 116.753906 83.351562 C 116.890625 83.371094 116.992188 83.242188 116.921875 83.117188 Z M 116.921875 83.117188 " fill-opacity="1" fill-rule="nonzero"/></g></g></g><g clip-path="url(#e9fb862779)"><g clip-path="url(#ee5a3c679d)"><g clip-path="url(#1cc83cc119)"><path fill="#334d2b" d="M 116.816406 60.613281 C 116.507812 58.933594 115.308594 58.332031 114.066406 57.992188 C 113.933594 57.953125 113.882812 58.195312 114 58.25 C 113.988281 58.269531 113.976562 58.296875 113.972656 58.328125 C 113.871094 59.691406 113.535156 61.214844 114.128906 62.484375 C 114.425781 63.125 114.980469 63.523438 115.535156 63.730469 C 115.777344 63.820312 116.023438 63.894531 116.265625 63.988281 C 116.402344 64.039062 116.5625 64.078125 116.667969 63.929688 C 116.9375 63.558594 116.929688 62.933594 116.941406 62.464844 C 116.953125 61.847656 116.929688 61.21875 116.816406 60.613281 Z M 114.054688 59.644531 C 114.0625 59.671875 114.070312 59.699219 114.078125 59.726562 C 114.082031 59.800781 114.085938 59.875 114.089844 59.949219 C 114.085938 59.957031 114.085938 59.964844 114.082031 59.972656 C 114.039062 60.117188 114.011719 60.265625 113.996094 60.414062 C 114.007812 60.160156 114.027344 59.902344 114.054688 59.644531 Z M 114.136719 61.871094 C 114.050781 61.566406 114.007812 61.25 113.996094 60.929688 C 114.03125 61.28125 114.136719 61.617188 114.300781 61.914062 C 114.375 62.164062 114.476562 62.410156 114.597656 62.632812 C 114.703125 62.832031 114.855469 63.03125 115.035156 63.195312 C 114.621094 62.902344 114.296875 62.433594 114.136719 61.871094 Z M 114.136719 61.871094 " fill-opacity="1" fill-rule="nonzero"/></g></g></g><g clip-path="url(#ce5663cd0c)"><path fill="#334d2b" d="M 36.617188 91.53125 C 36.671875 91.53125 36.726562 91.515625 36.773438 91.480469 C 36.886719 91.394531 36.910156 91.234375 36.824219 91.121094 C 36.800781 91.089844 34.574219 88.117188 33.082031 83.386719 C 32.207031 80.613281 31.753906 77.785156 31.730469 74.980469 C 31.703125 71.480469 32.355469 68.003906 33.671875 64.65625 C 33.722656 64.523438 33.65625 64.375 33.527344 64.324219 C 33.394531 64.269531 33.242188 64.335938 33.191406 64.46875 C 31.851562 67.882812 31.1875 71.425781 31.214844 74.996094 C 31.238281 77.855469 31.703125 80.734375 32.597656 83.558594 C 34.117188 88.371094 36.390625 91.402344 36.414062 91.429688 C 36.464844 91.496094 36.539062 91.53125 36.617188 91.53125 Z M 36.617188 91.53125 " fill-opacity="1" fill-rule="nonzero"/></g><path fill="#334d2b" d="M 33.167969 68.375 C 33.164062 68.351562 33.167969 68.320312 33.179688 68.289062 C 33.53125 67.425781 33.769531 66.609375 34.4375 65.921875 C 34.742188 65.609375 35.109375 65.351562 35.480469 65.125 C 35.679688 65.003906 35.890625 64.914062 36.101562 64.820312 C 36.4375 64.601562 36.796875 64.425781 37.171875 64.269531 C 37.679688 64.003906 38.210938 63.785156 38.75 63.609375 C 38.820312 63.585938 38.90625 63.648438 38.902344 63.726562 C 38.847656 64.570312 38.96875 65.429688 38.679688 66.242188 C 38.445312 66.894531 37.902344 67.414062 37.335938 67.78125 C 36.15625 68.542969 34.601562 68.71875 33.234375 68.601562 C 33.109375 68.589844 33.085938 68.425781 33.167969 68.375 Z M 38.449219 66.179688 C 38.660156 65.675781 38.664062 65.113281 38.65625 64.558594 C 38.53125 65.492188 38.433594 66.390625 37.820312 67.101562 C 38.085938 66.835938 38.304688 66.527344 38.449219 66.179688 Z M 37.902344 66.222656 C 37.710938 66.582031 37.464844 66.90625 37.160156 67.171875 C 37.128906 67.199219 37.09375 67.222656 37.0625 67.25 C 37.476562 66.964844 37.734375 66.613281 37.902344 66.222656 Z M 37.902344 66.222656 " fill-opacity="1" fill-rule="nonzero"/><path fill="#334d2b" d="M 30.871094 78.867188 C 29.726562 78.96875 28.433594 78.820312 27.449219 78.1875 C 26.976562 77.878906 26.523438 77.449219 26.328125 76.902344 C 26.085938 76.226562 26.1875 75.507812 26.144531 74.804688 C 26.140625 74.738281 26.210938 74.6875 26.269531 74.707031 C 26.71875 74.851562 27.164062 75.035156 27.585938 75.257812 C 27.898438 75.386719 28.199219 75.535156 28.476562 75.714844 C 28.652344 75.792969 28.832031 75.871094 28.996094 75.96875 C 29.304688 76.160156 29.613281 76.375 29.867188 76.632812 C 30.421875 77.207031 30.621094 77.890625 30.914062 78.609375 C 30.925781 78.636719 30.929688 78.660156 30.925781 78.683594 C 30.992188 78.722656 30.976562 78.859375 30.871094 78.867188 Z M 27.046875 77.617188 C 26.535156 77.027344 26.453125 76.277344 26.347656 75.5 C 26.339844 75.960938 26.34375 76.429688 26.519531 76.851562 C 26.640625 77.140625 26.824219 77.398438 27.046875 77.617188 Z M 27.679688 77.742188 C 27.648438 77.71875 27.621094 77.699219 27.59375 77.675781 C 27.339844 77.457031 27.136719 77.183594 26.976562 76.886719 C 27.117188 77.210938 27.332031 77.507812 27.679688 77.742188 Z M 27.679688 77.742188 " fill-opacity="1" fill-rule="nonzero"/><g clip-path="url(#bf62e08ea5)"><path fill="#334d2b" d="M 35.105469 87.367188 C 35.105469 87.347656 35.105469 87.320312 35.117188 87.292969 C 35.425781 86.527344 35.640625 85.804688 36.230469 85.199219 C 36.5 84.921875 36.824219 84.695312 37.152344 84.496094 C 37.324219 84.386719 37.515625 84.308594 37.699219 84.226562 C 37.996094 84.035156 38.316406 83.878906 38.644531 83.742188 C 39.09375 83.507812 39.5625 83.3125 40.039062 83.15625 C 40.101562 83.136719 40.175781 83.191406 40.171875 83.257812 C 40.125 84.003906 40.234375 84.765625 39.976562 85.484375 C 39.773438 86.0625 39.292969 86.519531 38.789062 86.84375 C 37.746094 87.515625 36.375 87.671875 35.164062 87.566406 C 35.054688 87.558594 35.035156 87.414062 35.105469 87.367188 Z M 39.773438 85.429688 C 39.960938 84.984375 39.964844 84.488281 39.957031 83.996094 C 39.847656 84.820312 39.761719 85.617188 39.21875 86.242188 C 39.453125 86.007812 39.644531 85.734375 39.773438 85.429688 Z M 39.289062 85.464844 C 39.121094 85.78125 38.90625 86.070312 38.636719 86.304688 C 38.605469 86.328125 38.578125 86.351562 38.546875 86.371094 C 38.914062 86.121094 39.140625 85.8125 39.289062 85.464844 Z M 39.289062 85.464844 " fill-opacity="1" fill-rule="nonzero"/></g><path fill="#334d2b" d="M 27.332031 62.269531 C 27.355469 62.21875 27.429688 62.1875 27.480469 62.207031 C 28.683594 62.671875 29.761719 63.378906 30.464844 64.476562 C 31.175781 65.589844 31.304688 66.957031 31.175781 68.242188 C 31.171875 68.285156 31.152344 68.316406 31.121094 68.339844 C 31.121094 68.421875 31.058594 68.496094 30.964844 68.457031 C 30.144531 68.125 29.320312 67.84375 28.59375 67.328125 C 28.109375 66.984375 27.78125 66.4375 27.535156 65.90625 C 27.03125 64.835938 26.746094 63.363281 27.332031 62.269531 Z M 30.894531 66.53125 C 30.882812 66.542969 30.871094 66.550781 30.855469 66.558594 C 30.867188 66.71875 30.867188 66.875 30.863281 67.03125 C 30.898438 67.125 30.929688 67.222656 30.949219 67.320312 C 30.945312 67.058594 30.929688 66.792969 30.894531 66.53125 Z M 27.617188 64.066406 C 27.628906 64.054688 27.644531 64.046875 27.65625 64.039062 C 27.640625 63.886719 27.632812 63.738281 27.636719 63.585938 C 27.609375 63.484375 27.585938 63.386719 27.570312 63.285156 C 27.542969 63.542969 27.570312 63.808594 27.617188 64.066406 Z M 27.617188 64.066406 " fill-opacity="1" fill-rule="nonzero"/><path fill="#334d2b" d="M 27.007812 85.832031 C 26.996094 85.777344 27.027344 85.707031 27.082031 85.6875 C 28.300781 85.261719 29.578125 85.105469 30.828125 85.488281 C 32.085938 85.875 33.074219 86.835938 33.804688 87.898438 C 33.828125 87.933594 33.835938 87.972656 33.828125 88.007812 C 33.878906 88.070312 33.878906 88.167969 33.78125 88.199219 C 32.945312 88.476562 32.132812 88.796875 31.246094 88.871094 C 30.652344 88.921875 30.046875 88.71875 29.515625 88.476562 C 28.441406 87.984375 27.269531 87.042969 27.007812 85.832031 Z M 32.484375 86.777344 C 32.484375 86.792969 32.480469 86.808594 32.472656 86.824219 C 32.585938 86.9375 32.6875 87.054688 32.785156 87.179688 C 32.871094 87.226562 32.957031 87.28125 33.039062 87.34375 C 32.863281 87.144531 32.679688 86.953125 32.484375 86.777344 Z M 28.390625 87.015625 C 28.394531 87 28.398438 86.988281 28.402344 86.972656 C 28.292969 86.867188 28.1875 86.757812 28.09375 86.640625 C 28.007812 86.582031 27.925781 86.519531 27.847656 86.449219 C 27.996094 86.667969 28.1875 86.851562 28.390625 87.015625 Z M 28.390625 87.015625 " fill-opacity="1" fill-rule="nonzero"/><path fill="#334d2b" d="M 38.34375 75.382812 C 38.386719 75.40625 38.414062 75.46875 38.394531 75.515625 C 37.953125 76.542969 37.304688 77.460938 36.324219 78.039062 C 35.335938 78.621094 34.140625 78.691406 33.027344 78.539062 C 32.992188 78.535156 32.964844 78.515625 32.945312 78.492188 C 32.875 78.488281 32.808594 78.429688 32.847656 78.347656 C 33.160156 77.648438 33.429688 76.9375 33.902344 76.324219 C 34.21875 75.914062 34.703125 75.644531 35.171875 75.445312 C 36.121094 75.042969 37.410156 74.839844 38.34375 75.382812 Z M 34.523438 78.347656 C 34.515625 78.339844 34.507812 78.328125 34.5 78.316406 C 34.363281 78.320312 34.226562 78.316406 34.089844 78.304688 C 34.007812 78.332031 33.921875 78.355469 33.835938 78.375 C 34.066406 78.378906 34.296875 78.371094 34.523438 78.347656 Z M 36.769531 75.574219 C 36.78125 75.585938 36.785156 75.597656 36.792969 75.609375 C 36.925781 75.597656 37.058594 75.597656 37.1875 75.605469 C 37.277344 75.585938 37.363281 75.570312 37.453125 75.558594 C 37.230469 75.527344 36.996094 75.542969 36.769531 75.574219 Z M 36.769531 75.574219 " fill-opacity="1" fill-rule="nonzero"/><path fill="#334d2b" d="M 32.425781 73.386719 C 32.523438 73.097656 32.570312 72.789062 32.667969 72.5 C 32.765625 72.214844 32.953125 71.945312 33.125 71.703125 C 33.480469 71.207031 33.984375 70.847656 34.5 70.539062 C 35.554688 69.90625 36.832031 69.503906 38.066406 69.714844 C 38.132812 69.726562 38.175781 69.761719 38.199219 69.804688 C 38.265625 69.859375 38.269531 69.972656 38.199219 70.019531 C 37.820312 71.128906 37.433594 72.347656 36.53125 73.148438 C 35.632812 73.945312 34.429688 73.894531 33.316406 73.726562 C 33.289062 73.71875 33.261719 73.714844 33.238281 73.710938 C 33.0625 73.707031 32.886719 73.691406 32.714844 73.65625 C 32.703125 73.660156 32.6875 73.660156 32.671875 73.664062 C 32.488281 73.710938 32.367188 73.558594 32.425781 73.386719 Z M 34.726562 70.871094 C 34.269531 71.136719 33.847656 71.449219 33.511719 71.859375 C 33.769531 71.628906 34.058594 71.429688 34.359375 71.242188 C 34.75 70.929688 35.175781 70.652344 35.625 70.429688 C 35.316406 70.554688 35.011719 70.703125 34.726562 70.871094 Z M 34.726562 70.871094 " fill-opacity="1" fill-rule="nonzero"/><g clip-path="url(#61e2b77938)"><path fill="#334d2b" d="M 31.875 83.433594 C 31.574219 83.507812 31.289062 83.628906 30.988281 83.695312 C 30.699219 83.765625 30.371094 83.746094 30.074219 83.726562 C 29.464844 83.691406 28.894531 83.449219 28.359375 83.175781 C 27.265625 82.613281 26.246094 81.742188 25.777344 80.582031 C 25.753906 80.523438 25.757812 80.46875 25.78125 80.421875 C 25.792969 80.339844 25.890625 80.277344 25.964844 80.308594 C 27.105469 80.046875 28.347656 79.730469 29.503906 80.074219 C 30.65625 80.414062 31.246094 81.464844 31.691406 82.5 C 31.699219 82.523438 31.710938 82.550781 31.71875 82.574219 C 31.8125 82.726562 31.886719 82.882812 31.949219 83.046875 C 31.960938 83.058594 31.96875 83.070312 31.980469 83.078125 C 32.113281 83.210938 32.050781 83.394531 31.875 83.433594 Z M 28.519531 82.808594 C 28.988281 83.058594 29.480469 83.25 30.003906 83.320312 C 29.671875 83.222656 29.347656 83.082031 29.03125 82.925781 C 28.5625 82.757812 28.101562 82.542969 27.671875 82.277344 C 27.941406 82.476562 28.226562 82.652344 28.519531 82.808594 Z M 28.519531 82.808594 " fill-opacity="1" fill-rule="nonzero"/></g><g clip-path="url(#2ad582a0c0)"><path fill="#334d2b" d="M 25.859375 68.445312 C 25.910156 68.328125 26.082031 68.304688 26.179688 68.363281 C 27.144531 68.925781 28.164062 69.382812 29.066406 70.054688 C 29.429688 70.320312 29.777344 70.632812 30.054688 70.992188 C 30.558594 71.53125 30.8125 72.222656 30.921875 73.046875 C 30.9375 73.152344 30.828125 73.183594 30.753906 73.144531 C 30.328125 73.613281 29.578125 73.621094 28.996094 73.574219 C 28.367188 73.523438 27.660156 73.386719 27.128906 73.039062 C 26.421875 72.574219 25.960938 71.707031 25.777344 70.90625 C 25.605469 70.148438 25.550781 69.167969 25.859375 68.445312 Z M 25.859375 68.445312 " fill-opacity="1" fill-rule="nonzero"/></g><path fill="#334d2b" d="M 33.710938 83.101562 C 33.808594 82.914062 33.902344 82.726562 33.992188 82.539062 C 33.964844 82.523438 33.945312 82.492188 33.957031 82.445312 C 34.132812 81.707031 34.425781 81.105469 34.9375 80.667969 C 35.21875 80.367188 35.566406 80.113281 35.914062 79.90625 C 36.796875 79.382812 37.761719 79.066406 38.6875 78.644531 C 38.785156 78.601562 38.9375 78.636719 38.96875 78.75 C 39.183594 79.433594 39.042969 80.316406 38.816406 80.984375 C 38.574219 81.691406 38.074219 82.4375 37.394531 82.789062 C 37.222656 82.878906 37.035156 82.941406 36.839844 82.992188 C 35.949219 83.351562 34.785156 83.160156 33.886719 83.328125 C 33.75 83.351562 33.648438 83.226562 33.710938 83.101562 Z M 33.710938 83.101562 " fill-opacity="1" fill-rule="nonzero"/><g clip-path="url(#6abd74bd5a)"><path fill="#334d2b" d="M 33.242188 60.601562 C 33.507812 58.910156 34.691406 58.28125 35.921875 57.910156 C 36.054688 57.867188 36.113281 58.105469 35.996094 58.164062 C 36.011719 58.183594 36.019531 58.210938 36.023438 58.242188 C 36.160156 59.601562 36.535156 61.113281 35.976562 62.402344 C 35.695312 63.050781 35.148438 63.460938 34.601562 63.683594 C 34.363281 63.78125 34.117188 63.859375 33.878906 63.960938 C 33.742188 64.015625 33.585938 64.054688 33.472656 63.910156 C 33.195312 63.550781 33.1875 62.921875 33.164062 62.453125 C 33.136719 61.835938 33.144531 61.210938 33.242188 60.601562 Z M 35.976562 59.558594 C 35.96875 59.589844 35.964844 59.617188 35.957031 59.644531 C 35.953125 59.71875 35.953125 59.792969 35.949219 59.867188 C 35.953125 59.875 35.957031 59.878906 35.957031 59.886719 C 36.003906 60.03125 36.035156 60.179688 36.054688 60.328125 C 36.039062 60.074219 36.011719 59.816406 35.976562 59.558594 Z M 35.949219 61.789062 C 36.03125 61.484375 36.0625 61.164062 36.070312 60.839844 C 36.042969 61.195312 35.945312 61.535156 35.789062 61.832031 C 35.722656 62.089844 35.625 62.335938 35.511719 62.5625 C 35.410156 62.761719 35.261719 62.964844 35.085938 63.136719 C 35.496094 62.832031 35.804688 62.351562 35.949219 61.789062 Z M 35.949219 61.789062 " fill-opacity="1" fill-rule="nonzero"/></g></svg>